<svg width="39" height="27" viewBox="0 0 39 27" fill="none" xmlns="http://www.w3.org/2000/svg">
<path d="M28 4.5769H10.7692C9.58459 4.5769 8.62613 5.54614 8.62613 6.73075L8.61536 19.6538C8.61536 20.8384 9.58459 21.8077 10.7692 21.8077H28C29.1846 21.8077 30.1538 20.8384 30.1538 19.6538V6.73075C30.1538 5.54614 29.1846 4.5769 28 4.5769ZM27.5692 9.15383L19.9554 13.9138C19.6107 14.1292 19.1584 14.1292 18.8138 13.9138L11.2 9.15383C11.092 9.09321 10.9974 9.01131 10.922 8.91309C10.8466 8.81486 10.7919 8.70236 10.7612 8.58238C10.7305 8.4624 10.7245 8.33745 10.7435 8.21508C10.7625 8.09271 10.8062 7.97547 10.8718 7.87046C10.9374 7.76545 11.0237 7.67484 11.1254 7.60413C11.227 7.53342 11.342 7.48407 11.4633 7.45907C11.5846 7.43407 11.7097 7.43395 11.831 7.45869C11.9523 7.48344 12.0674 7.53256 12.1692 7.60306L19.3846 12.1154L26.6 7.60306C26.7018 7.53256 26.8168 7.48344 26.9382 7.45869C27.0595 7.43395 27.1846 7.43407 27.3059 7.45907C27.4272 7.48407 27.5421 7.53342 27.6438 7.60413C27.7455 7.67484 27.8317 7.76545 27.8974 7.87046C27.963 7.97547 28.0066 8.09271 28.0257 8.21508C28.0447 8.33745 28.0386 8.4624 28.008 8.58238C27.9773 8.70236 27.9226 8.81486 27.8472 8.91309C27.7718 9.01131 27.6772 9.09321 27.5692 9.15383Z" fill="black"/>
</svg>
