<svg width="24" height="27" viewBox="0 0 24 27" fill="none" xmlns="http://www.w3.org/2000/svg">
<g clip-path="url(#clip0_135_1412)">
<path d="M23.3425 12.4815C23.3425 5.98159 18.117 0.71228 11.6712 0.71228C5.22543 0.71228 0 5.98149 0 12.4815C0 18.3558 4.26802 23.2249 9.8476 24.1078V15.8836H6.8842V12.4815H9.8476V9.8886C9.8476 6.93894 11.5901 5.30964 14.256 5.30964C15.533 5.30964 16.8686 5.5395 16.8686 5.5395V8.43584H15.3969C13.9469 8.43584 13.4949 9.34308 13.4949 10.2739V12.4815H16.7318L16.2144 15.8836H13.4949V24.1078C19.0744 23.2249 23.3425 18.3559 23.3425 12.4815Z" fill="#1877F2"/>
<path d="M16.2144 15.8836L16.7318 12.4816H13.4949V10.2739C13.4949 9.34304 13.947 8.43589 15.3969 8.43589H16.8686V5.53956C16.8686 5.53956 15.533 5.30969 14.256 5.30969C11.5901 5.30969 9.84762 6.939 9.84762 9.88866V12.4816H6.88422V15.8836H9.84762V24.1078C10.4509 24.2032 11.0606 24.251 11.6712 24.2508C12.2819 24.251 12.8916 24.2032 13.4949 24.1078V15.8836H16.2144Z" fill="white"/>
</g>
<defs>
<clipPath id="clip0_135_1412">
<rect width="23.3425" height="25.5" fill="white" transform="translate(0 0.71228)"/>
</clipPath>
</defs>
</svg>
