<svg width="24" height="26" viewBox="0 0 24 26" fill="none" xmlns="http://www.w3.org/2000/svg">
<g clip-path="url(#clip0_135_1407)">
<path d="M23.7696 12.2245C23.7696 11.2413 23.692 10.5238 23.5241 9.77966H12.6037V14.2176H19.0137C18.8845 15.3205 18.1866 16.9815 16.6358 18.0976L16.6141 18.2462L20.0669 20.9964L20.3061 21.0209C22.503 18.9347 23.7696 15.8653 23.7696 12.2245Z" fill="#4285F4"/>
<path d="M12.6038 23.9176C15.7441 23.9176 18.3805 22.8545 20.3062 21.0209L16.6359 18.0976C15.6537 18.8018 14.3355 19.2934 12.6038 19.2934C9.528 19.2934 6.91748 17.2074 5.9869 14.324L5.85049 14.3359L2.26021 17.1927L2.21326 17.3269C4.12591 21.2334 8.05466 23.9176 12.6038 23.9176Z" fill="#34A853"/>
<path d="M5.98686 14.3239C5.74132 13.5798 5.59921 12.7825 5.59921 11.9587C5.59921 11.1349 5.74132 10.3376 5.97394 9.59354L5.96744 9.43507L2.33216 6.53235L2.21322 6.59052C1.42492 8.21162 0.972595 10.032 0.972595 11.9587C0.972595 13.8854 1.42492 15.7058 2.21322 17.3269L5.98686 14.3239Z" fill="#FBBC05"/>
<path d="M12.6038 4.62403C14.7878 4.62403 16.2611 5.59401 17.1011 6.40461L20.3837 3.10928C18.3677 1.1826 15.7441 0 12.6038 0C8.05466 0 4.12591 2.68406 2.21326 6.59056L5.97398 9.59359C6.91748 6.7102 9.528 4.62403 12.6038 4.62403Z" fill="#EB4335"/>
</g>
<defs>
<clipPath id="clip0_135_1407">
<rect width="22.8173" height="26" fill="white" transform="translate(0.972595)"/>
</clipPath>
</defs>
</svg>
