<svg width="60" height="60" viewBox="0 0 60 60" fill="none" xmlns="http://www.w3.org/2000/svg">
<rect width="60" height="60" rx="30" fill="white"/>
<path d="M18.765 44.95C17.865 44.95 17.145 44.71 16.605 44.23C16.065 43.75 15.795 43.09 15.795 42.25V25.285C15.795 21.295 17.04 18.175 19.53 15.925C22.02 13.675 25.47 12.55 29.88 12.55C34.29 12.55 37.74 13.675 40.23 15.925C42.72 18.175 43.965 21.295 43.965 25.285V42.25C43.965 43.09 43.695 43.75 43.155 44.23C42.615 44.71 41.895 44.95 40.995 44.95C40.095 44.95 39.36 44.71 38.79 44.23C38.25 43.72 37.98 43.06 37.98 42.25V25.15C37.98 22.6 37.29 20.65 35.91 19.3C34.53 17.95 32.52 17.275 29.88 17.275C27.24 17.275 25.23 17.95 23.85 19.3C22.47 20.65 21.78 22.6 21.78 25.15V42.25C21.78 43.06 21.495 43.72 20.925 44.23C20.385 44.71 19.665 44.95 18.765 44.95Z" fill="#029E8A"/>
</svg>
