<svg width="34" height="27" viewBox="0 0 34 27" fill="none" xmlns="http://www.w3.org/2000/svg">
<path d="M13.1292 12.5046C14.68 15.5523 17.1785 18.0507 20.2262 19.6015L22.5954 17.2323C22.8969 16.9307 23.3169 16.8446 23.6939 16.963C24.9 17.3615 26.1923 17.5769 27.5385 17.5769C27.8241 17.5769 28.098 17.6904 28.3 17.8923C28.5019 18.0943 28.6154 18.3682 28.6154 18.6538V22.423C28.6154 22.7087 28.5019 22.9826 28.3 23.1845C28.098 23.3865 27.8241 23.5 27.5385 23.5C22.683 23.5 18.0263 21.5711 14.593 18.1378C11.1596 14.7044 9.23077 10.0478 9.23077 5.19228C9.23077 4.90666 9.34424 4.63274 9.5462 4.43078C9.74816 4.22882 10.0221 4.11536 10.3077 4.11536H14.0769C14.3625 4.11536 14.6365 4.22882 14.8384 4.43078C15.0404 4.63274 15.1539 4.90666 15.1539 5.19228C15.1539 6.53843 15.3692 7.83074 15.7677 9.03689C15.8862 9.41382 15.8 9.83382 15.4985 10.1354L13.1292 12.5046Z" fill="black"/>
</svg>
