<svg width="81" height="19" viewBox="0 0 81 19" fill="none" xmlns="http://www.w3.org/2000/svg">
<path d="M1.808 18.24C1.328 18.24 0.944 18.112 0.656 17.856C0.368 17.6 0.224 17.248 0.224 16.8V7.752C0.224 5.624 0.888 3.96 2.216 2.76C3.544 1.56 5.384 0.959999 7.736 0.959999C10.088 0.959999 11.928 1.56 13.256 2.76C14.584 3.96 15.248 5.624 15.248 7.752V16.8C15.248 17.248 15.104 17.6 14.816 17.856C14.528 18.112 14.144 18.24 13.664 18.24C13.184 18.24 12.792 18.112 12.488 17.856C12.2 17.584 12.056 17.232 12.056 16.8V7.68C12.056 6.32 11.688 5.28 10.952 4.56C10.216 3.84 9.144 3.48 7.736 3.48C6.328 3.48 5.256 3.84 4.52 4.56C3.784 5.28 3.416 6.32 3.416 7.68V16.8C3.416 17.232 3.264 17.584 2.96 17.856C2.672 18.112 2.288 18.24 1.808 18.24Z" fill="#029E8A"/>
<path d="M22.8409 18.2C21.6943 18.2 20.6943 17.9933 19.8409 17.58C18.9876 17.1667 18.3276 16.5867 17.8609 15.84C17.4076 15.08 17.1809 14.1933 17.1809 13.18C17.1809 11.54 17.6543 10.2667 18.6009 9.36C19.5609 8.45333 20.9076 8 22.6409 8C23.7076 8 24.6476 8.16667 25.4609 8.5C26.2876 8.83333 26.9276 9.3 27.3809 9.9C27.8476 10.4867 28.0809 11.16 28.0809 11.92C28.0809 12.56 27.8743 13.0533 27.4609 13.4C27.0609 13.7467 26.4876 13.92 25.7409 13.92H19.7209C19.7209 14.6667 19.9809 15.2333 20.5009 15.62C21.0343 15.9933 21.8143 16.18 22.8409 16.18C23.9209 16.18 24.8409 15.94 25.6009 15.46C26.0276 15.1933 26.3609 15.06 26.6009 15.06C26.8276 15.06 27.0476 15.1667 27.2609 15.38C27.4876 15.6067 27.6009 15.8533 27.6009 16.12C27.6009 16.44 27.4676 16.6933 27.2009 16.88C26.6409 17.3067 25.9876 17.6333 25.2409 17.86C24.4943 18.0867 23.6943 18.2 22.8409 18.2ZM24.9409 12.08C25.1676 12.08 25.3276 12.04 25.4209 11.96C25.5143 11.8667 25.5609 11.72 25.5609 11.52C25.5609 11.0533 25.2943 10.6867 24.7609 10.42C24.2409 10.1533 23.5343 10.02 22.6409 10.02C21.7476 10.02 21.0409 10.2067 20.5209 10.58C20.0143 10.9533 19.7609 11.4533 19.7609 12.08H24.9409ZM38.7169 16.34C38.9302 16.5533 39.0369 16.8067 39.0369 17.1C39.0369 17.42 38.9035 17.6933 38.6369 17.92C38.4235 18.0933 38.1835 18.18 37.9169 18.18C37.5569 18.18 37.2235 18.0267 36.9169 17.72L34.0369 14.64L31.1369 17.72C30.8302 18.0267 30.4969 18.18 30.1369 18.18C29.8702 18.18 29.6302 18.0933 29.4169 17.92C29.1502 17.6933 29.0169 17.42 29.0169 17.1C29.0169 16.8067 29.1235 16.5533 29.3369 16.34L32.4769 13L29.5969 9.94C29.3435 9.66 29.2169 9.37333 29.2169 9.08C29.2169 8.76 29.3502 8.48667 29.6169 8.26C29.8035 8.08667 30.0369 8 30.3169 8C30.6769 8 31.0302 8.17333 31.3769 8.52L34.0369 11.34L36.6769 8.52C37.0235 8.17333 37.3769 8 37.7369 8C38.0169 8 38.2502 8.08667 38.4369 8.26C38.7035 8.48667 38.8369 8.76 38.8369 9.08C38.8369 9.37333 38.7102 9.66 38.4569 9.94L35.5769 13L38.7169 16.34ZM48.8417 15.42C49.0551 15.5933 49.1617 15.8067 49.1617 16.06C49.1617 16.3133 49.0684 16.5733 48.8817 16.84C48.5884 17.2667 48.1751 17.6 47.6417 17.84C47.1084 18.08 46.5084 18.2 45.8417 18.2C44.7751 18.2 43.9351 17.9133 43.3217 17.34C42.7217 16.7533 42.4217 15.9533 42.4217 14.94V10.26H41.6017C41.2017 10.26 40.8817 10.1667 40.6417 9.98C40.4017 9.79333 40.2817 9.54667 40.2817 9.24C40.2817 8.92 40.3951 8.66667 40.6217 8.48C40.8617 8.29333 41.1884 8.2 41.6017 8.2H42.4217V5.18C42.4217 4.80667 42.5417 4.51333 42.7817 4.3C43.0217 4.08667 43.3417 3.98 43.7417 3.98C44.1551 3.98 44.4751 4.08667 44.7017 4.3C44.9284 4.51333 45.0417 4.80667 45.0417 5.18V8.2H46.9617C47.3751 8.2 47.6951 8.29333 47.9217 8.48C48.1617 8.66667 48.2817 8.92 48.2817 9.24C48.2817 9.54667 48.1617 9.79333 47.9217 9.98C47.6951 10.1667 47.3751 10.26 46.9617 10.26H45.0417V15.16C45.0417 15.4533 45.1284 15.6867 45.3017 15.86C45.4884 16.0333 45.7351 16.12 46.0417 16.12C46.2817 16.12 46.4884 16.0867 46.6617 16.02C46.8484 15.94 47.0351 15.8133 47.2217 15.64C47.5684 15.3067 47.8884 15.14 48.1817 15.14C48.3951 15.14 48.6151 15.2333 48.8417 15.42ZM51.9036 18.2C51.4903 18.2 51.1703 18.0933 50.9436 17.88C50.7169 17.6667 50.6036 17.3733 50.6036 17V4.02C50.6036 3.64667 50.7169 3.35333 50.9436 3.14C51.1703 2.92667 51.4903 2.82 51.9036 2.82C52.3036 2.82 52.6236 2.92667 52.8636 3.14C53.1036 3.35333 53.2236 3.64667 53.2236 4.02L53.2436 9.56C53.7103 9.05333 54.2703 8.66667 54.9236 8.4C55.5769 8.13333 56.2703 8 57.0036 8C58.6569 8 59.9503 8.45333 60.8836 9.36C61.8169 10.2533 62.2836 11.5 62.2836 13.1C62.2836 14.7 61.8103 15.9533 60.8636 16.86C59.9303 17.7533 58.6236 18.2 56.9436 18.2C56.1836 18.2 55.5169 18.08 54.9436 17.84C54.3703 17.5867 53.7969 17.1733 53.2236 16.6V17C53.2236 17.3733 53.1036 17.6667 52.8636 17.88C52.6236 18.0933 52.3036 18.2 51.9036 18.2ZM56.5436 16.12C57.5169 16.12 58.2769 15.8533 58.8236 15.32C59.3703 14.7867 59.6436 14.0467 59.6436 13.1C59.6436 12.1533 59.3703 11.4133 58.8236 10.88C58.2769 10.3467 57.5169 10.08 56.5436 10.08C55.5036 10.08 54.6903 10.3467 54.1036 10.88C53.5169 11.4133 53.2236 12.1533 53.2236 13.1C53.2236 14.0467 53.5169 14.7867 54.1036 15.32C54.6903 15.8533 55.5036 16.12 56.5436 16.12ZM65.5639 6.76C65.0706 6.76 64.6706 6.62667 64.3639 6.36C64.0706 6.08 63.9239 5.72 63.9239 5.28C63.9239 4.84 64.0706 4.48667 64.3639 4.22C64.6706 3.94 65.0706 3.8 65.5639 3.8C66.0572 3.8 66.4572 3.94 66.7639 4.22C67.0839 4.48667 67.2439 4.84 67.2439 5.28C67.2439 5.72 67.0839 6.08 66.7639 6.36C66.4572 6.62667 66.0572 6.76 65.5639 6.76ZM65.5839 18.2C65.1706 18.2 64.8506 18.0933 64.6239 17.88C64.3972 17.6667 64.2839 17.3733 64.2839 17V9.2C64.2839 8.82667 64.3972 8.53333 64.6239 8.32C64.8506 8.10667 65.1706 8 65.5839 8C65.9839 8 66.3039 8.10667 66.5439 8.32C66.7839 8.53333 66.9039 8.82667 66.9039 9.2V17C66.9039 17.3733 66.7839 17.6667 66.5439 17.88C66.3039 18.0933 65.9839 18.2 65.5839 18.2ZM74.2202 18.2C73.1802 18.2 72.2535 18 71.4402 17.6C70.6402 17.1867 70.0135 16.5933 69.5602 15.82C69.1068 15.0467 68.8802 14.14 68.8802 13.1C68.8802 12.06 69.0935 11.16 69.5202 10.4C69.9602 9.62667 70.5868 9.03333 71.4002 8.62C72.2135 8.20667 73.1735 8 74.2802 8C75.0935 8 75.7802 8.13333 76.3402 8.4C76.9002 8.65333 77.4268 9.04 77.9202 9.56L77.9402 4.02C77.9402 3.64667 78.0602 3.35333 78.3002 3.14C78.5402 2.92667 78.8602 2.82 79.2602 2.82C79.6602 2.82 79.9735 2.92667 80.2002 3.14C80.4402 3.34 80.5602 3.63333 80.5602 4.02V17C80.5602 17.3867 80.4402 17.6867 80.2002 17.9C79.9735 18.1 79.6602 18.2 79.2602 18.2C78.8602 18.2 78.5402 18.0933 78.3002 17.88C78.0602 17.6667 77.9402 17.3733 77.9402 17V16.6C77.0468 17.6667 75.8068 18.2 74.2202 18.2ZM74.6202 16.12C75.6602 16.12 76.4735 15.8533 77.0602 15.32C77.6468 14.7867 77.9402 14.0467 77.9402 13.1C77.9402 12.1533 77.6468 11.4133 77.0602 10.88C76.4735 10.3467 75.6602 10.08 74.6202 10.08C73.6468 10.08 72.8868 10.3467 72.3402 10.88C71.7935 11.4133 71.5202 12.1533 71.5202 13.1C71.5202 14.0467 71.7935 14.7867 72.3402 15.32C72.8868 15.8533 73.6468 16.12 74.6202 16.12Z" fill="url(#paint0_linear_14_1401)"/>
<defs>
<linearGradient id="paint0_linear_14_1401" x1="79.925" y1="8.20834" x2="14.6664" y2="11.5364" gradientUnits="userSpaceOnUse">
<stop stop-color="#1FAE9B"/>
<stop offset="1" stop-color="#009D88"/>
</linearGradient>
</defs>
</svg>
