<svg width="24" height="24" viewBox="0 0 24 24" fill="none" xmlns="http://www.w3.org/2000/svg">
<path d="M12 7.5C11.11 7.5 10.24 7.76392 9.49993 8.25839C8.75991 8.75285 8.18314 9.45566 7.84254 10.2779C7.50195 11.1002 7.41283 12.005 7.58647 12.8779C7.7601 13.7508 8.18868 14.5526 8.81802 15.182C9.44736 15.8113 10.2492 16.2399 11.1221 16.4135C11.995 16.5872 12.8998 16.4981 13.7221 16.1575C14.5443 15.8169 15.2471 15.2401 15.7416 14.5001C16.2361 13.76 16.5 12.89 16.5 12C16.4988 10.8069 16.0243 9.66303 15.1806 8.81939C14.337 7.97575 13.1931 7.50124 12 7.5ZM12 14.25C11.555 14.25 11.12 14.118 10.75 13.8708C10.38 13.6236 10.0916 13.2722 9.92127 12.861C9.75097 12.4499 9.70642 11.9975 9.79323 11.561C9.88005 11.1246 10.0943 10.7237 10.409 10.409C10.7237 10.0943 11.1246 9.88005 11.561 9.79323C11.9975 9.70642 12.4499 9.75097 12.861 9.92127C13.2722 10.0916 13.6236 10.38 13.8708 10.75C14.118 11.12 14.25 11.555 14.25 12C14.25 12.5967 14.0129 13.169 13.591 13.591C13.169 14.0129 12.5967 14.25 12 14.25ZM16.5 1.875H7.5C6.00869 1.87674 4.57896 2.46993 3.52444 3.52444C2.46993 4.57896 1.87674 6.00869 1.875 7.5V16.5C1.87674 17.9913 2.46993 19.421 3.52444 20.4756C4.57896 21.5301 6.00869 22.1233 7.5 22.125H16.5C17.9913 22.1233 19.421 21.5301 20.4756 20.4756C21.5301 19.421 22.1233 17.9913 22.125 16.5V7.5C22.1233 6.00869 21.5301 4.57896 20.4756 3.52444C19.421 2.46993 17.9913 1.87674 16.5 1.875ZM19.875 16.5C19.875 17.3951 19.5194 18.2535 18.8865 18.8865C18.2535 19.5194 17.3951 19.875 16.5 19.875H7.5C6.60489 19.875 5.74645 19.5194 5.11351 18.8865C4.48058 18.2535 4.125 17.3951 4.125 16.5V7.5C4.125 6.60489 4.48058 5.74645 5.11351 5.11351C5.74645 4.48058 6.60489 4.125 7.5 4.125H16.5C17.3951 4.125 18.2535 4.48058 18.8865 5.11351C19.5194 5.74645 19.875 6.60489 19.875 7.5V16.5ZM18.375 7.125C18.375 7.42167 18.287 7.71168 18.1222 7.95836C17.9574 8.20503 17.7231 8.39729 17.449 8.51082C17.1749 8.62435 16.8733 8.65406 16.5824 8.59618C16.2914 8.5383 16.0241 8.39544 15.8143 8.18566C15.6046 7.97588 15.4617 7.70861 15.4038 7.41764C15.3459 7.12666 15.3756 6.82506 15.4892 6.55098C15.6027 6.27689 15.795 6.04262 16.0416 5.8778C16.2883 5.71297 16.5783 5.625 16.875 5.625C17.2728 5.625 17.6544 5.78304 17.9357 6.06434C18.217 6.34564 18.375 6.72718 18.375 7.125Z" fill="white"/>
</svg>
