<svg width="24" height="24" viewBox="0 0 24 24" fill="none" xmlns="http://www.w3.org/2000/svg">
<path d="M7.50001 7.66999V6.69999C7.50001 4.44999 9.31001 2.23999 11.56 2.02999C12.1852 1.96856 12.8163 2.03871 13.4127 2.23592C14.0091 2.43313 14.5577 2.75303 15.023 3.17503C15.4883 3.59703 15.8602 4.11178 16.1145 4.68616C16.3689 5.26053 16.5002 5.8818 16.5 6.50999V7.88999M9.00001 22H15C19.02 22 19.74 20.39 19.95 18.43L20.7 12.43C20.97 9.98999 20.27 7.99999 16 7.99999H8.00001C3.73001 7.99999 3.03001 9.98999 3.30001 12.43L4.05001 18.43C4.26001 20.39 4.98001 22 9.00001 22Z" stroke="black" stroke-width="2" stroke-miterlimit="10" stroke-linecap="round" stroke-linejoin="round"/>
<path d="M15.495 12H15.505M8.495 12H8.503" stroke="black" stroke-width="3" stroke-linecap="round" stroke-linejoin="round"/>
</svg>
