<svg width="114" height="109" viewBox="0 0 114 109" fill="none" xmlns="http://www.w3.org/2000/svg">
<path fill-rule="evenodd" clip-rule="evenodd" d="M12.6192 65.5435C16.6947 65.5435 21.1683 62.9631 24.4107 60.7817C24.2413 61.3217 24.0795 61.8757 24.0795 62.4504C24.0795 64.2385 25.6494 65.4593 27.4697 65.4593C30.2555 65.4593 32.7757 63.5796 34.6182 61.7491C34.3304 62.3528 34.0578 62.9771 34.0578 63.6494C34.0578 64.7301 35.0233 65.2205 36.0621 65.2205C39.9313 65.2205 44.0583 61.406 46.6085 58.8384L42.8202 65.1368H45.3996L50.7209 56.3278C51.3323 55.3096 52.0176 54.3215 53.0863 53.7039C54.1474 53.0941 55.4958 52.5049 56.7638 52.5049C57.1982 52.5049 57.8471 52.8067 57.8471 53.2977C57.8471 53.445 57.7955 53.5923 57.744 53.7256C57.5599 53.6274 57.3822 53.5644 57.1689 53.5644C56.4243 53.5644 55.7537 54.1396 55.7537 54.8616C55.7537 55.5841 56.3657 55.998 57.0657 55.998C58.2159 55.998 59.2324 55.2488 60.0947 54.6099C61.0895 53.8683 62.0484 53.0842 62.9685 52.26L57.8471 60.8168C57.7841 60.9218 57.7178 61.0289 57.6504 61.1379C57.2134 61.8447 56.7263 62.6325 56.7263 63.4474C56.7263 64.5761 57.8465 65.1658 58.9 65.1658C60.559 65.1658 62.0991 64.3457 63.4181 63.4541C65.8135 61.8412 67.9063 59.8555 69.8813 57.794L67.8618 61.1677C67.7881 61.2901 67.7095 61.4137 67.63 61.5388C67.2489 62.1385 66.8452 62.7738 66.8452 63.4759C66.8452 64.7312 67.8471 65.1441 69.0712 65.1441C72.0484 65.1441 75.0569 62.4661 77.269 60.4969C77.4661 60.3215 77.6568 60.1517 77.8406 59.99C77.8345 60.0142 77.8283 60.0384 77.8221 60.0625C77.6656 60.6761 77.5088 61.291 77.5088 61.9254C77.5088 64.1498 79.5067 65.3059 81.6664 65.3059C83.9204 65.3059 86.0502 64.3317 87.9373 63.2583C89.7728 62.2133 91.5122 61.0071 93.1483 59.6948C94.6069 58.5232 95.9042 57.2188 97.1418 55.8307L91.4752 65.1379H93.9884L97.4818 59.4354C98.8741 57.1557 100.716 55.0797 103.118 53.7189C104.179 53.1158 105.455 52.5267 106.723 52.5267C107.275 52.5267 107.614 52.7375 107.842 53.1861C107.711 53.1722 107.57 53.1582 107.43 53.1582C106.731 53.1582 105.919 53.6849 105.919 54.4068C105.919 54.8621 106.398 55.2906 106.87 55.2906C107.769 55.2906 108.514 54.3511 108.514 53.5443C108.514 52.6751 107.814 52.1489 106.922 52.1489C104.202 52.1489 101.866 53.8394 99.9498 55.4948L101.733 52.2823H99.2868L98.7041 53.2709C98.3048 53.9554 97.7428 54.582 97.2083 55.178C97.1512 55.2417 97.0943 55.3051 97.038 55.3681C95.5032 57.0795 93.8085 58.6548 91.9747 60.0748C89.8086 61.7296 85.4382 64.6687 82.4461 64.6687C81.2003 64.6687 80.1023 63.6996 80.1023 62.5012C80.1023 61.6459 80.464 60.8603 80.8169 60.0954C81.9595 60.0887 83.0575 60.0257 84.1637 59.7378C86.3516 59.1698 88.7106 58.1946 90.2881 56.5883C91.0027 55.858 91.7402 54.8621 91.7402 53.8104C91.7402 52.4151 90.2653 51.7762 88.9761 51.7762C84.9745 51.7762 81.0391 56.0332 78.6291 58.7062L74.2658 62.3176C73.2129 63.188 71.6277 64.3312 70.1979 64.3312C69.7189 64.3312 69.3584 63.9239 69.3584 63.4826C69.3584 63.0686 69.4985 62.6624 69.7125 62.3048L75.7179 52.2817H73.2938L72.1811 54.0141C71.776 54.6456 71.3704 55.2766 70.9137 55.8803C70.0584 57.009 69.0483 58.0333 68.0101 59.0153C66.5732 60.3766 65.0701 61.7301 63.4257 62.8588C62.5341 63.4764 61.5398 64.1498 60.3972 64.1498C59.889 64.1498 59.1585 63.8893 59.1585 63.3141C59.1585 62.8661 59.4024 62.4169 59.6305 62.0314L65.7032 52.015H69.3227L69.5208 51.5659H65.8809L69.0125 46.3689H66.5586L64.7448 49.3147C63.4111 51.4683 61.3927 53.3195 59.1585 54.6311C59.1232 54.6517 59.0871 54.6731 59.0501 54.6949C58.7095 54.8962 58.3046 55.1355 57.9058 55.1355C57.7879 55.1355 57.693 55.0937 57.5968 55.0306C58.0904 54.6306 58.4592 54.0766 58.4592 53.431C58.4592 52.5194 57.5968 52.1406 56.7421 52.1406C55.1944 52.1406 53.713 52.7576 52.4086 53.5013L53.1233 52.2806H50.4999L48.9452 55.0022C47.2727 57.9413 44.7741 60.2767 42.0253 62.3109C42.0017 62.3285 41.9779 62.3463 41.9538 62.3643C40.8935 63.1565 39.3401 64.3172 37.9351 64.3172C37.3823 64.3172 36.7779 63.9808 36.7779 63.3989C36.7779 62.8934 37.0358 62.389 37.2938 61.9606L43.0864 52.2817H40.6031L39.284 54.4699C39.2248 52.5551 38.2669 51.6083 36.1887 51.6083C32.2457 51.6083 28.5753 54.5541 26.3131 57.3806C25.5838 58.2861 25.0456 59.2602 24.559 60.2985C21.53 62.2272 17.2258 64.9482 13.4968 64.9482C10.055 64.9482 8.20547 62.8092 8.20547 59.6044C8.20547 56.9175 9.13407 54.2105 10.3499 51.8186C12.8924 46.7968 17.108 42.3502 22.3994 39.8814C23.8585 39.2007 25.524 38.7237 27.1602 38.7237C29.3568 38.7237 32.5992 39.8741 32.5992 42.3429C32.5992 42.8484 32.4808 43.3248 32.3337 43.8019L32.7018 44.0334C33.5349 41.8731 34.4265 40.4772 36.4531 39.1728L36.0844 38.8079C35.2226 39.4116 34.2718 40.0286 33.1515 40.0286C32.8343 40.0286 32.4878 40.0007 32.2006 39.8462L30.6975 39.0673C29.6581 38.5206 28.4053 38.3733 27.2334 38.3733C26.3171 38.3767 25.4043 38.4825 24.5139 38.6885C21.2415 39.4456 18.1245 41.0028 15.5305 43.037C12.1772 45.6737 9.32518 48.9984 7.37947 52.7018C6.37701 54.6099 5.48535 56.7139 5.48535 58.8814C5.48535 62.8716 8.46224 65.5435 12.6192 65.5435ZM36.4086 51.9721C37.7282 51.9721 38.7817 52.7855 38.7817 54.062C38.7817 55.8223 37.3079 57.9123 36.2239 59.2942C34.5145 61.4757 31.3453 64.6676 28.3309 64.6676C27.0341 64.6676 26.3265 63.6148 26.3265 62.4783C26.3265 61.4612 26.717 60.5713 27.1813 59.6591C28.4194 57.2534 30.3575 55.03 32.635 53.445C33.7629 52.6522 34.9717 51.9721 36.4086 51.9721ZM81.1487 59.6743C81.0788 59.6713 81.0086 59.6682 80.9377 59.6658C80.9979 59.5702 81.0612 59.4693 81.1273 59.364C82.6215 56.9815 85.5787 52.2666 88.5423 52.2661C89.2053 52.2661 89.9944 52.5607 89.9944 53.2832C89.9944 54.6652 88.6021 56.3138 87.6207 57.2115C86.0661 58.6348 83.8032 59.6876 81.6154 59.6876C81.4578 59.6876 81.3039 59.681 81.1487 59.6743Z" fill="black"/>
<path fill-rule="evenodd" clip-rule="evenodd" d="M76.6552 49.5663C76.1469 49.5663 75.7413 49.3069 75.7413 48.7875C75.7413 48.0231 76.552 46.9781 77.3921 46.9781C77.9221 46.9781 78.173 47.434 78.173 47.897C78.1736 48.7317 77.5908 49.5663 76.6552 49.5663V49.5663Z" fill="black"/>
</svg>
