<svg width="114" height="109" viewBox="0 0 114 109" fill="none" xmlns="http://www.w3.org/2000/svg">
<path fill-rule="evenodd" clip-rule="evenodd" d="M56.8802 65.1974C60.5796 65.1994 62.4554 70.0152 68.1892 69.9978C75.5487 69.9754 76.3704 65.0684 76.9776 64.1838C84.6945 54.052 82.6585 43.444 77.9783 40.146C72.5481 36.2701 66.7426 38.9904 65.0991 37.8342C64.314 37.3072 64.5993 36.9331 63.7958 36.2363C62.9914 35.5394 61.8321 35.5623 62.1519 34.5362C62.6873 33.7203 64.314 34.6722 65.5283 33.8224C67.0791 32.1781 68.6184 28.3993 68.7247 27.7363C69.761 26.7162 69.7929 25.0066 69.4391 24.3018C67.6533 22.3641 65.5911 25.311 64.3669 24.778C63.7414 24.2171 63.5849 23.8401 63.3305 23.5716C63.0097 23.2313 62.009 23.1805 61.1694 22.0244C59.7228 19.2364 59.1517 18.8115 56.8802 18.811H56.8582C54.5872 18.811 54.0157 19.2364 52.569 22.0244C51.7295 23.1805 50.7287 23.2313 50.4079 23.5716C50.1535 23.8405 49.997 24.2171 49.3721 24.778C48.1473 25.3115 46.0851 22.3641 44.2993 24.3018C43.9455 25.0066 43.978 26.7157 45.0138 27.7363C45.1211 28.3993 46.6604 32.1781 48.2107 33.8224C49.4255 34.6722 51.0511 33.7203 51.5866 34.5362C51.9074 35.5623 50.747 35.5389 49.9431 36.2363C49.1392 36.9331 49.4249 37.3072 48.6393 37.8342C46.9959 38.9899 41.1903 36.2701 35.7606 40.146C31.0804 43.4445 29.0444 54.052 36.7608 64.1838C37.368 65.0679 38.1897 69.9754 45.5492 69.9978C51.283 70.0152 53.1589 65.1994 56.8587 65.1974H56.8802V65.1974Z" fill="black"/>
<path fill-rule="evenodd" clip-rule="evenodd" d="M45.8538 40.017C51.6353 40.017 56.6646 44.6724 56.6646 50.5273C56.6646 56.3822 51.6358 61.0366 45.8538 61.0366C40.0729 61.0366 35.0436 56.3822 35.0436 50.5273C35.0436 44.6724 40.0729 40.017 45.8538 40.017V40.017ZM45.8538 60.5803C51.9436 60.5803 52.7648 54.2682 52.7648 50.5273C52.7648 46.7859 51.9441 40.4742 45.8538 40.4742C39.7646 40.4742 38.9434 46.7854 38.9434 50.5273C38.9434 54.2682 39.7646 60.5803 45.8538 60.5803ZM76.6678 48.8377H76.1208C75.9868 43.8012 72.1953 40.4742 67.9878 40.4742C61.898 40.4742 61.1119 46.7859 61.0774 50.5273C61.0365 55.0213 63.5012 60.0618 68.7158 60.0025C71.6997 59.9686 75.6121 57.5712 76.1208 54.3947H76.6678V60.815H76.1208C75.8795 60.1719 74.7427 59.74 73.922 59.74C72.8956 59.74 71.5118 60.6904 67.9878 60.6904C62.2058 60.6904 57.177 56.3827 57.177 50.5273C57.177 44.6724 62.2058 40.017 67.9878 40.017C71.4767 40.017 73.9508 42.0164 75.2368 42.4244C76.2548 42.7302 76.0946 41.9143 76.6678 42.379C76.6301 43.9541 76.6678 48.8377 76.6678 48.8377V48.8377Z" fill="white"/>
<path fill-rule="evenodd" clip-rule="evenodd" d="M45.3346 45.841L38.677 63.1193C39.2114 65.2671 41.9885 66.904 45.3351 66.904C48.6739 66.904 51.4468 65.2746 51.9896 63.1332L45.3346 45.841ZM39.6542 63.1302L45.3346 48.1772L51.0538 63.1302H39.6542V63.1302ZM67.4554 45.8021L60.7984 63.0804C61.3322 65.2283 64.1094 66.8651 67.4554 66.8651C70.7952 66.8651 73.5677 65.2358 74.1104 63.0943L67.4554 45.8021V45.8021ZM61.7755 63.0914L67.4554 48.1388L73.1751 63.0914H61.7755Z" fill="white"/>
<path fill-rule="evenodd" clip-rule="evenodd" d="M45.3346 45.8215H67.4554L67.5889 46.3002L45.1896 46.3007L45.3346 45.8215V45.8215ZM56.8499 44.0188C56.8499 44.0188 56.8143 37.5249 61.4228 37.9328C61.4228 37.6608 61.3872 36.3005 59.9939 36.2666C59.4585 36.2327 59.1015 36.6402 58.4227 36.3343C57.7428 36.0285 57.9574 33.6824 56.8855 33.6485L56.8284 33.6515C55.7565 33.6853 55.9706 36.0315 55.2922 36.3373C54.6139 36.6432 54.2564 36.2352 53.7205 36.2696C52.3272 36.3035 52.2916 37.6633 52.2916 37.9358C56.9001 37.5278 56.8645 44.0213 56.8645 44.0213L56.8499 44.0188V44.0188ZM56.898 31.4762C59.6657 31.4762 62.032 31.8298 62.9951 32.3295L65.7942 26.7978C65.7942 26.7978 64.9081 26.5971 64.4967 27.0056C64.3004 27.1754 63.9251 27.1585 63.7289 27.2606C63.5315 27.3622 63.6388 27.4987 63.2107 27.6173C62.6925 27.8554 62.2639 27.7363 61.9064 28.2802C61.7818 28.6374 61.4783 30.592 59.638 30.5751C56.9943 30.5068 56.3511 25.2029 60.8167 26.614C60.8167 24.4896 58.4583 24.6425 58.1751 24.4567C57.2618 23.7409 57.9767 22.3636 56.9043 22.3297H56.8766C55.8046 22.3636 56.5191 23.7409 55.6063 24.4567C55.3221 24.642 52.9642 24.4891 52.9642 26.614C57.4298 25.2029 56.7871 30.5068 54.1434 30.5751C52.3031 30.592 51.9995 28.6369 51.8745 28.2802C51.5175 27.7363 51.0888 27.8554 50.5707 27.6173C50.142 27.4982 50.2493 27.3622 50.053 27.2606C49.8562 27.1585 49.4815 27.1754 49.2847 27.0056C48.8738 26.5976 47.9872 26.7978 47.9872 26.7978L50.7868 32.3295C51.7483 31.8298 54.1156 31.4762 56.8828 31.4762H56.898V31.4762Z" fill="white"/>
<path fill-rule="evenodd" clip-rule="evenodd" d="M94.3989 82.664H98.4604C98.6457 82.0931 99.0147 80.4673 99.0147 80.2471C98.9686 79.5448 99.0147 78.6661 98.1846 78.6661C97.4455 78.6661 96.5223 79.4571 95.8764 80.2033C95.4137 80.7746 94.7678 81.9168 94.3989 82.664V82.664ZM94.2141 83.059C93.6143 84.4209 93.061 86.0906 93.4751 86.8367C93.8441 87.4514 94.3073 87.6716 95.2305 87.7154C95.9696 87.7593 97.1687 87.1446 97.769 86.7496C98.3233 86.3984 99.246 85.6074 99.8464 84.5967L100.169 84.773C99.615 85.6955 98.9691 86.4427 97.9543 87.1451C96.8923 87.8484 95.8309 88.1996 94.7689 88.1558C93.5227 88.1109 92.3225 87.6721 91.8143 86.7939C91.3061 85.959 91.1684 84.6859 91.7683 83.1925C92.4141 81.6105 93.4306 80.4683 94.6307 79.6334C95.8769 78.7986 97.1692 78.2726 98.4609 78.2726C99.5229 78.2726 100.307 78.6237 100.722 79.3261C101.139 80.0294 101.461 81.9178 100.953 83.1048L94.2141 83.059V83.059ZM95.4598 70.8471L88.0291 85.4305C87.7983 85.8265 86.9671 87.0126 87.244 87.3638C87.3832 87.5834 87.4748 87.6273 88.0291 87.6273L87.8438 87.9346H83.3201L83.5054 87.5396C84.0136 87.5396 84.5203 87.4509 84.7055 87.2313C85.2138 86.6609 85.5367 85.9137 85.8596 85.3429L90.89 75.5469C91.2129 74.8883 92.5523 72.604 92.5523 71.8568C92.5523 71.6814 92.2754 71.5056 91.8593 71.3741L91.9986 71.1544L94.9071 70.8033L95.4598 70.8471V70.8471ZM83.9676 79.1936L80.7361 85.4744C80.275 86.3541 79.8578 87.1002 79.951 87.3199C80.1363 87.6711 80.3211 87.5396 80.7822 87.5396L80.5969 87.8908H76.0732L76.2585 87.5396C76.9514 87.5396 77.4125 87.4509 77.8276 86.7924C78.1505 86.2649 78.4285 85.6064 78.7509 84.9479L81.6594 79.1931H80.2284L80.4592 78.6656H82.0284L82.1676 78.4021C82.609 77.4272 83.0706 76.4606 83.552 75.503C84.1518 74.4485 84.8903 73.526 85.2603 73.1748C85.8602 72.5601 86.4594 71.9888 87.2445 71.5499C88.0757 71.1101 88.8147 70.8904 89.6448 70.8466C90.7989 70.8028 91.7222 72.0326 90.6152 73.131C90.1991 73.526 89.4601 73.4822 88.999 73.1748C88.676 72.9985 88.5368 72.6911 88.4908 72.4725C88.3986 72.209 88.3986 71.944 88.5839 71.813C88.4908 71.7253 88.5368 71.6814 88.306 71.7691C88.0302 71.813 87.4759 72.4725 87.2451 72.8236C85.9067 74.8007 85.0756 76.425 84.5218 77.6997L84.1528 78.6656H86.091L85.8152 79.1931H83.9676V79.1936ZM74.5046 78.5351C73.5352 78.5351 72.6585 79.4138 71.92 80.2919C71.4129 80.8628 70.6267 82.1803 70.2577 83.0152C69.7045 84.2012 68.5043 87.7588 70.3969 87.7154C71.0428 87.7154 71.9661 87.0569 72.612 86.3097C73.2118 85.695 73.9969 84.4652 74.6422 83.1915C75.1975 81.9606 76.1669 78.5789 74.5046 78.5351ZM74.3669 78.1839C75.8439 78.1839 76.8133 78.7104 77.2744 79.8088C77.6434 80.7313 77.5512 81.7858 77.0901 82.9718C76.7672 83.8067 76.259 84.6849 75.521 85.5635C74.783 86.3984 73.8587 87.1007 72.9815 87.5406C72.1043 87.9356 71.1815 88.0671 70.3053 88.0671C68.8744 88.0671 67.9972 87.4967 67.5821 86.3984C67.2121 85.4315 67.2121 84.3337 67.6742 83.1915C67.9972 82.3128 68.5514 81.4775 69.3355 80.6436C70.0546 79.8841 70.9157 79.2583 71.875 78.7981C72.7507 78.4026 73.5818 78.1839 74.3669 78.1839V78.1839ZM67.535 76.2059L66.3349 78.5351H68.0432L67.8124 78.9739H66.1511L62.9658 85.2119C62.6428 85.8266 62.2278 86.7052 62.2738 86.9687C62.3199 87.1874 62.4591 87.4514 62.736 87.4514C62.9658 87.4514 63.6121 86.9239 63.9351 86.5727C64.3512 86.1777 65.1363 84.9917 65.4121 84.5519L65.7822 84.5957C65.32 85.4305 64.213 86.8801 63.6577 87.3199C63.1045 87.7588 62.5046 87.9784 61.9493 87.9784C60.8423 87.9346 60.2881 87.0997 60.3812 86.2654C60.4273 85.7389 61.0732 84.5085 61.4421 83.7613L63.8424 79.1059H62.7815V78.7538C63.5656 78.6222 64.6275 78.2711 65.1808 77.9189C66.058 77.4362 66.751 76.8654 67.2121 76.2059H67.535V76.2059ZM60.4733 78.6222L59.2271 81.1253L58.9503 80.9938C59.1355 80.0279 59.0434 79.7639 58.8121 79.4128C58.5813 79.0606 58.1191 78.8409 57.5188 78.8409C57.0571 78.8409 56.8268 78.9734 56.4573 79.3246C55.4419 80.2033 57.7035 83.191 57.9809 84.113C58.2568 85.0355 58.2107 86.9239 56.596 87.7144C55.9962 87.9779 55.0269 88.0656 54.2884 88.0656C53.7341 88.1094 52.8574 87.8469 52.2571 87.5391C52.1189 87.4953 51.8881 87.4066 51.7494 87.4066C51.6107 87.4066 51.2883 87.6263 51.1496 87.8464L50.6879 87.8016L52.2115 84.6385H52.4884C52.4423 85.3857 52.4423 86.1329 52.6732 86.6604C52.8579 87.1869 53.3196 87.5391 53.8733 87.7139C54.3805 87.8464 55.0274 87.6701 55.4425 87.3628C55.812 87.0116 56.0423 86.3969 56.0888 86.0447C56.1349 85.4739 55.6272 84.7272 55.4885 84.376C55.0274 83.3653 53.0887 81.3006 54.6579 79.2803C55.3038 78.4892 56.5965 78.3577 57.4277 78.3577C57.7506 78.3577 58.5357 78.4893 58.9508 78.7089C59.1816 78.8404 59.3198 79.0163 59.5051 78.9724C59.7359 78.9724 60.0133 78.7961 60.1049 78.6212H60.4733V78.6222V78.6222ZM52.3031 78.5789L49.6265 83.8062C49.3496 84.377 48.0573 86.7052 48.0107 87.0564C47.9652 87.4963 48.1955 87.5401 48.7493 87.5401L48.6571 87.8474H44.3648L44.5495 87.5401C45.0112 87.4962 45.4728 87.4076 45.8418 87.0126C46.9964 85.167 48.196 82.4438 49.3501 80.2033C49.4888 79.9408 49.5809 79.5448 49.4428 79.4133C49.3041 79.3246 49.258 79.1059 48.889 79.1936L48.9811 78.8862L51.8891 78.5789H52.3031V78.5789ZM54.1957 74.0102C54.5652 74.4938 54.1957 75.372 53.7346 75.8547C53.4117 76.162 52.9961 76.4255 52.6732 76.4255C51.1961 76.4255 51.3348 74.9322 52.3497 74.0535C52.9495 73.5265 53.7341 73.394 54.1957 74.0102ZM43.9026 78.5789L43.6252 79.1498C43.6713 79.1059 43.6252 79.3251 43.7178 79.2813C44.4569 78.7976 45.4717 78.5789 46.2568 78.5789C47.4109 78.5789 48.1029 79.9846 46.764 80.7746C46.395 80.9943 45.6565 80.9071 45.2415 80.5111C44.9185 80.2038 44.9185 79.6763 45.0562 79.2374C45.0101 79.1498 44.918 79.1498 44.8714 79.1498C44.7788 79.1498 43.9481 79.7206 43.7173 79.8959C43.3017 80.2033 42.8867 80.7746 42.4711 81.3893L40.3016 85.6507C40.0708 86.1344 39.8405 86.4856 39.7479 86.7491C39.6092 87.0564 39.6092 87.2766 39.7018 87.4076C39.7939 87.5401 39.9326 87.5401 40.3016 87.5401V87.8474H36.1474V87.5401C36.6551 87.4962 36.886 87.4963 37.1623 87.2766C37.5318 87.0131 38.3164 85.431 38.8241 84.4647C39.7934 82.5763 40.6706 80.7746 40.9936 80.0723C41.0857 79.8088 41.317 79.2813 40.4859 79.0616V78.8419L43.3478 78.5794H43.9026V78.5789V78.5789ZM35.9171 70.8909L31.6248 79.5009C32.502 78.9734 33.979 78.3149 35.1326 78.3149C35.7324 78.3587 36.148 78.4902 36.5175 78.7976C36.7938 79.0611 36.9325 79.2374 37.0247 79.8521C37.2555 80.8628 36.5175 81.873 35.825 83.2348C35.4095 84.1135 34.5788 85.563 34.0245 86.8362C33.7477 87.4509 34.0706 87.5396 34.6709 87.5396L34.5788 87.8469H30.1938V87.5396C31.025 87.4509 31.5787 87.1874 31.9482 86.4412C32.8166 84.8335 33.6476 83.2077 34.4406 81.5651C35.1331 80.2033 35.5021 79.4133 34.4867 79.0173C33.6555 78.6661 31.4405 80.2919 30.702 81.3455C29.8714 82.8388 28.4404 85.6941 27.8867 86.8801C27.7019 87.3199 28.0254 87.5834 28.5325 87.5396V87.8469H24.0549V87.5834C24.6097 87.4958 25.1174 87.3638 25.3943 87.0998C26.2715 85.6941 31.5792 75.108 32.5025 73.2625C32.6412 72.9551 32.8715 72.7798 33.0102 72.209C33.0563 71.9016 32.6867 71.5933 32.3177 71.5504L32.2717 71.2859L35.5026 70.8909H35.9171V70.8909ZM30.7941 70.8471L28.163 76.162L27.8867 75.9867C28.3017 74.3608 28.4404 73.1748 27.9788 72.3853C27.5172 71.5504 26.4557 71.0234 25.0713 71.0663C24.0549 71.1111 22.9479 71.6381 21.9781 72.2533C20.9166 72.9556 19.9478 73.8343 18.9319 75.0213C17.7961 76.402 16.8641 77.9241 16.1621 79.5453C15.4701 81.0825 15.3314 82.3133 15.2854 83.4107C15.2388 84.509 15.4701 85.4754 15.9313 86.1349C16.4395 86.8372 17.2701 87.4086 18.3776 87.4086C19.3475 87.4086 20.5471 86.7501 21.4709 86.1787C22.3942 85.6512 24.0099 83.8067 25.3021 82.1375L25.6711 82.3138C24.6097 84.1145 22.5323 86.2231 21.2861 86.9702C19.9933 87.7603 18.7011 88.0238 17.3167 88.0238C14.7782 88.0238 13.4859 86.7939 12.9777 84.8169C12.6082 83.3235 12.7474 81.61 13.6702 79.5458C14.3626 77.8761 15.2393 76.2955 16.5316 74.8893C17.8239 73.4837 19.3009 72.5611 20.8245 71.8139C22.302 71.0239 23.8707 70.4964 25.2561 70.5403C26.3641 70.5841 27.379 70.8476 28.2562 71.3303C28.4871 71.4365 28.7384 71.4966 28.9947 71.5066C29.4098 71.5066 30.2409 71.1993 30.4717 70.8043L30.7941 70.8471V70.8471Z" fill="black"/>
</svg>
