<svg width="114" height="109" viewBox="0 0 114 109" fill="none" xmlns="http://www.w3.org/2000/svg">
<path fill-rule="evenodd" clip-rule="evenodd" d="M2.16138 54.3393H8.75474V56.6212H6.71641V60.4424H14.1481V56.6212H12.0505V54.3393H18.7629V56.6212H16.6056V67.8577H18.7629V70.0822H12.0505V67.8577H14.1481V62.6668H6.71641V67.8577H8.75474V70.0822H2.16138V67.8577H4.25951V56.6212H2.16138V54.3393ZM81.0326 54.3393H94.5781V58.7318H92.3006V56.6212H85.7078V60.386H91.341V62.6099H85.7078V67.8577H92.2408V64.8349H94.6374V70.0822H81.0326V67.8577H83.2504V56.6212H81.0326V54.3393ZM21.8195 54.3393H35.4243V58.7318H33.0869V56.6212H26.4942V60.386H32.1279V62.6099H26.4942V67.8577H33.0272V64.8349H35.4243V70.0822H21.8195V67.8577H24.0373V56.6212H21.8195V54.3393ZM84.9885 52.2292H89.8431L91.042 53.5978H86.3076L84.9885 52.2292ZM107.883 61.0701C106.204 60.67 105.066 60.728 103.328 60.2148C101.829 59.7015 101.53 58.8451 101.53 58.2749C101.53 57.6472 102.189 56.1073 104.586 56.1073C106.984 56.1073 108.602 57.6472 108.662 58.9589H110.999V54.3393H108.722V55.367L108.842 55.6515V55.7095V55.6515C108.781 55.6515 108.722 55.4802 108.481 55.3095V55.2526C107.823 54.6818 106.444 53.9973 104.406 53.9973C101.949 53.9973 99.0728 55.4802 99.0728 58.2749C99.0728 61.0131 101.11 61.9253 102.909 62.3817C104.647 62.8381 105.545 62.8381 107.043 63.237C108.481 63.579 109.441 64.4343 109.441 65.6896C109.441 66.8306 108.662 68.3705 105.545 68.3705C102.488 68.3705 101.23 66.7731 100.87 64.5487H98.6525V70.081H100.93V69.0545L100.87 68.7688C100.87 68.7688 100.93 68.9401 101.23 69.1108V69.1688C102.367 70.0241 103.926 70.5943 105.844 70.5943C108.062 70.5943 111.838 69.5114 111.838 65.7466C111.839 63.0099 110.34 61.7546 107.883 61.0701ZM75.6991 67.8577V56.6212H77.9162V54.3393H71.9231L67.9074 63.5796L67.8482 64.0365L67.7281 63.5796L63.7722 54.3393H57.7193V56.6212H59.9364V67.8577H57.7193V70.0822H64.4909V67.8577H62.3933V56.8488L62.5745 57.3632L67.1887 67.8577H68.5078L73.122 57.3632L73.2422 56.7919L73.302 57.4196V67.8577H71.2038V70.0822H77.9162V67.8577H75.6991ZM27.3934 48.2936H25.1159V47.7234H26.7943C26.8541 47.8373 27.2135 48.1224 27.3934 48.2936ZM84.6292 48.2936C84.6292 48.0655 84.8683 47.8373 85.1685 47.7234H86.3674V48.2936H84.6292ZM46.9912 48.6926C45.9724 49.1489 44.7137 49.092 43.6948 48.6926H31.7685C31.1988 48.9185 30.5877 49.0348 29.9705 49.0348C29.3533 49.0348 28.7423 48.9185 28.1726 48.6926H25.1159V49.776H86.3674V48.6926H46.9912ZM32.4878 48.2936C32.6678 48.1793 33.0869 47.7804 33.1467 47.7234H42.3764C42.496 47.8947 42.7961 48.1798 42.9755 48.2936H32.4878ZM45.3732 47.9511C46.9314 47.9511 48.2499 46.6963 48.2499 45.2134C48.2499 43.6735 46.9314 42.4182 45.3732 42.4182C44.5948 42.4195 43.8486 42.7144 43.2982 43.2384C42.7478 43.7623 42.438 44.4725 42.4368 45.2134C42.4368 46.6963 43.7552 47.9511 45.3732 47.9511V48.5213C43.3953 48.5213 41.8371 47.0383 41.8371 45.2134C41.8371 43.3309 43.3953 41.848 45.3732 41.848C47.2908 41.848 48.849 43.3309 48.849 45.2134C48.8484 46.0905 48.482 46.9315 47.8303 47.5518C47.1786 48.172 46.2949 48.5207 45.3732 48.5213V47.9511ZM33.9258 44.7575C33.9258 42.7038 32.1279 40.9927 29.9705 40.9927C27.7528 40.9927 26.0146 42.7038 26.0146 44.7575C26.0146 46.8682 27.7528 48.5218 29.9705 48.5218C32.1279 48.5218 33.9258 46.8676 33.9258 44.7575H33.2663C33.2663 46.5256 31.7679 47.9516 29.9699 47.9516C29.529 47.9523 29.0923 47.8701 28.6848 47.7098C28.2773 47.5496 27.907 47.3143 27.5952 47.0176C27.2834 46.7208 27.0362 46.3685 26.8678 45.9806C26.6994 45.5928 26.6131 45.1772 26.6138 44.7575C26.6138 42.9895 28.1122 41.6203 29.9699 41.6203C30.4032 41.6192 30.8324 41.6995 31.2329 41.8567C31.6334 42.014 31.9973 42.245 32.3036 42.5366C32.6099 42.8281 32.8527 43.1744 33.0179 43.5556C33.1832 43.9367 33.2676 44.3452 33.2663 44.7575H33.9258Z" fill="black"/>
<path fill-rule="evenodd" clip-rule="evenodd" d="M47.231 47.0959L46.0328 45.7837V45.7268C46.0931 45.6699 46.0931 45.6124 46.1524 45.5555L47.9503 46.0119C48.0101 46.0119 48.1303 46.0688 48.1303 46.1257C48.1303 46.0688 48.1907 45.8406 48.2499 45.7268C48.1901 45.7837 48.0699 45.7837 47.9503 45.7837L46.2725 45.3279C46.2122 45.3279 46.2122 45.2704 46.2122 45.2704V44.9848L47.9503 44.3571C47.9503 44.3571 48.1303 44.3571 48.1303 44.414C48.1303 44.3571 48.0101 44.072 48.0101 44.0151C48.0101 44.072 47.89 44.1864 47.8302 44.1864L47.9503 44.1289L46.1524 44.7566C46.1524 44.8135 46.1524 44.7566 46.0926 44.7566C46.0905 44.7269 46.0772 44.6989 46.0551 44.6779C46.033 44.6569 46.0036 44.6442 45.9724 44.6422C45.9724 44.5847 45.9126 44.5278 45.9724 44.5278L46.9315 43.1018C46.9918 43.0449 47.1114 42.9874 47.1712 42.9874C47.1108 42.9874 46.8717 42.8161 46.7515 42.7592C46.8119 42.7592 46.8119 42.9305 46.7515 42.9874L45.7924 44.4135H45.6728C45.6728 44.4135 45.5526 44.3566 45.4928 44.3566C45.4928 44.3566 45.4325 44.3566 45.4325 44.2991L45.3727 42.6454C45.3727 42.531 45.3727 42.4172 45.4928 42.4172H45.0133C45.0737 42.4172 45.1335 42.5885 45.1335 42.6454L45.1939 44.2991C45.1939 44.3566 45.1335 44.3566 45.1335 44.3566C45.1335 44.3566 45.0133 44.4135 44.9535 44.4709C44.9535 44.4709 44.8937 44.4709 44.8937 44.4135L43.7553 43.1018C43.6949 43.0449 43.6949 42.9305 43.6949 42.8736C43.6351 42.9311 43.3953 43.1018 43.3355 43.1587C43.3953 43.1587 43.5155 43.2162 43.5753 43.2731L44.7137 44.5847V44.6422C44.6534 44.6422 44.5936 44.7566 44.5936 44.8135C44.5936 44.8135 44.5338 44.8704 44.4734 44.8704L42.7956 44.414C42.6754 44.3571 42.6156 44.2996 42.6156 44.2427C42.6156 44.2996 42.4954 44.5847 42.4954 44.6422C42.4954 44.6422 42.6754 44.5847 42.7352 44.6422L44.413 45.0417C44.4734 45.0417 44.4734 45.0986 44.4734 45.0986V45.3837L42.7956 46.0683C42.7352 46.0683 42.6156 46.1252 42.6156 46.0683C42.6156 46.1252 42.6754 46.3534 42.7352 46.4677C42.7352 46.4103 42.8554 46.2964 42.9152 46.2964L44.5338 45.6119C44.5936 45.6119 44.5936 45.6693 44.5936 45.6693C44.6534 45.6693 44.7137 45.7262 44.7137 45.7832C44.7735 45.7832 44.7735 45.8406 44.7735 45.8406L43.7547 47.2667C43.6943 47.3241 43.6345 47.3805 43.5747 47.3805C43.6345 47.438 43.8743 47.6087 43.934 47.6087C43.8737 47.6087 43.934 47.4374 43.934 47.3805L44.9529 46.0119C44.9529 45.9544 45.0127 45.9544 45.0127 45.9544C45.0731 46.0119 45.1329 46.0119 45.1927 46.0119C45.2525 46.0119 45.2525 46.0119 45.2525 46.0688L45.3727 47.78C45.3727 47.8374 45.3123 47.9512 45.2525 47.9512H45.732C45.6118 47.9512 45.6119 47.8374 45.6119 47.7231L45.4923 46.0688C45.4923 46.0119 45.5521 46.0119 45.5521 46.0119C45.6118 46.0119 45.732 45.9544 45.7918 45.8975C45.7918 45.8975 45.8522 45.8975 45.8522 45.9544L47.0505 47.2098C47.0505 47.2667 47.1103 47.3805 47.1103 47.438L47.4098 47.1529C47.3506 47.2103 47.231 47.0959 47.231 47.0959ZM29.8504 42.5896C31.5282 42.5896 33.2066 42.7609 34.1656 43.046C34.2852 43.046 34.2852 43.1598 34.1656 43.2173C33.1468 43.4455 31.4684 43.6162 29.9102 43.6162C28.352 43.6737 26.6736 43.6162 25.5949 43.388C25.4753 43.388 25.4753 43.2736 25.5949 43.2736C26.5546 42.9322 28.1726 42.6471 29.8504 42.5896V42.3045C28.0524 42.362 26.2544 42.7609 24.756 43.2742C24.576 43.3311 24.576 43.4455 24.756 43.4455C26.4344 43.8449 28.1726 43.9018 29.9102 43.8449C31.5886 43.7875 33.3865 43.6737 35.0045 43.2173C35.2443 43.1598 35.1845 43.046 35.0643 43.046C33.3742 42.5557 31.6173 42.3057 29.8504 42.304V42.5896Z" fill="black"/>
<path fill-rule="evenodd" clip-rule="evenodd" d="M47.6508 41.563C47.231 41.6773 46.5117 41.905 46.1524 41.905C45.8528 41.905 44.355 41.8481 43.3355 41.905C41.9567 41.9619 41.8371 42.1331 41.7773 42.0193C41.4777 41.563 41.238 40.8784 40.7584 40.4789C37.9416 40.9353 35.1845 40.5364 32.6678 39.6805V39.338C32.8478 39.3954 32.9674 39.3954 33.087 39.3954C32.6678 38.8252 31.9485 38.6534 31.5288 38.0263C31.289 37.855 31.2292 37.513 30.9894 37.3417C31.0492 37.9694 30.5099 38.4258 30.4501 38.9385C30.8095 39.0529 31.289 39.0529 31.469 38.996C31.7087 38.9385 32.0083 38.996 32.1285 39.1672C32.3085 39.2241 32.428 39.3385 32.6678 39.3385V39.6811C32.3677 39.6236 32.3085 39.5667 32.0687 39.4529C31.7691 39.5673 31.5294 39.5098 31.4092 39.396C31.3488 39.3385 30.7497 39.3385 30.5099 39.3385C29.7308 39.3385 28.8919 39.6236 28.4721 40.2513C28.2922 40.5933 28.352 40.9928 28.5319 41.2779C28.6521 41.4491 29.1915 42.1906 29.5508 42.4182L29.0713 42.5326C28.352 41.905 27.8126 41.3348 27.9328 40.5933C28.2928 38.9965 29.8504 39.2241 30.2701 38.5401C30.5697 37.9125 30.6893 36.0875 30.3299 35.5742C29.311 35.1747 28.053 34.6615 27.8126 33.5205C27.7528 33.2354 27.873 32.8928 28.1726 32.8359C28.7113 32.7221 29.0713 33.0072 29.491 33.1785C29.671 33.0641 29.311 32.6652 29.7308 32.6652C30.2701 32.6652 30.6295 33.6918 30.8095 33.7493L30.7497 34.1482C30.3903 34.0344 29.0713 33.3498 28.9517 33.2929C28.7119 33.1785 28.4123 33.0072 28.2324 33.2354C27.9926 33.5205 28.2928 33.8631 28.4721 34.1482C31.289 36.9428 35.9636 33.9769 39.0202 35.9731C39.08 35.8019 39.0202 35.7449 38.9001 35.688C36.8025 33.8062 33.4463 34.7758 30.7497 34.1482L30.8095 33.7493C34.1656 34.5476 38.6011 33.236 40.3387 36.8865C41.4771 38.4269 42.676 40.8789 45.1329 40.9364C47.1108 40.9933 48.4293 40.2518 49.3884 38.8827C50.7068 36.6014 51.4859 33.9774 53.8232 32.4376C54.063 32.3232 54.1826 32.4376 54.063 32.4945C52.9245 33.578 51.9051 35.0046 51.3657 36.2024C52.2644 39.4534 54.2424 38.7689 54.7219 38.712C54.6017 37.5141 54.7219 33.978 57.4192 33.1222C58.2021 32.5483 59.1337 32.1869 60.1151 32.0764C61.0965 31.9658 62.091 32.1103 62.9931 32.4945C60.8955 34.3769 59.6369 37.0577 59.2172 38.9396L56.8798 39.5673C57.0598 39.2247 57.0598 38.6545 57 38.0274C56.7602 38.1412 56.5205 38.3125 55.9811 38.5976C55.7414 38.6545 55.9208 38.3125 55.9208 38.3125C55.9208 38.1987 56.5199 37.9705 56.9994 37.6854C56.8195 36.3732 56.6999 34.662 57.8383 33.5785C55.5016 34.32 56.1605 38.9971 56.4003 39.5678C55.7408 39.8529 54.8421 39.8529 54.8421 39.8529L54.7219 39.054C53.703 39.3965 51.9649 39.1683 51.1858 36.6014C50.3474 38.255 49.6281 40.8784 47.6508 41.563ZM84.21 34.6046C84.0899 34.4902 84.0289 34.4333 83.9099 34.4333C83.8489 34.3764 83.9099 34.3189 83.9697 34.3189C84.0295 34.262 84.1497 34.3189 84.21 34.4333C84.2698 34.4902 84.2698 34.6046 84.21 34.6046Z" fill="black"/>
<path fill-rule="evenodd" clip-rule="evenodd" d="M30.5697 45.6128L31.8277 46.982C31.9479 47.0963 31.9479 47.2671 31.8881 47.3245C32.0681 47.2671 32.3079 46.982 32.4275 46.8681C32.3671 46.9251 32.1279 46.9251 32.0681 46.8107L30.7497 45.4415V45.3277L30.8094 45.2703C30.8094 45.2134 30.8692 45.2134 30.8692 45.2134L32.727 45.841C32.907 45.9548 32.9668 46.0692 32.9668 46.1261C33.0272 46.0123 33.1468 45.6703 33.2066 45.5559C33.1462 45.6134 32.9668 45.6703 32.8472 45.6134L30.9894 44.9857C30.9296 44.9857 30.9296 44.9857 30.9296 44.9288V44.8144C30.9296 44.7575 30.9894 44.7575 30.9894 44.7575L32.907 44.4724C33.1468 44.415 33.2664 44.5293 33.2664 44.5862C33.2664 44.4724 33.2066 44.073 33.2066 43.9586C33.2066 44.0161 33.0864 44.1868 32.8472 44.2437L30.9894 44.5288C30.9296 44.5288 30.9296 44.4719 30.9296 44.4719C30.8692 44.4144 30.8692 44.3575 30.8094 44.3006V44.2437L32.3079 43.0464C32.4878 42.932 32.6672 42.932 32.727 42.9889C32.6074 42.8745 32.3677 42.5894 32.2481 42.4756C32.3084 42.5325 32.2481 42.7038 32.1279 42.8745L30.6893 44.0155C30.6289 44.0724 30.6289 44.0724 30.6289 44.0155C30.5691 44.0155 30.5093 44.0155 30.4495 43.958C30.4495 43.958 30.3897 43.9011 30.4495 43.9011L31.109 42.1331C31.1314 42.0721 31.1713 42.0183 31.2243 41.978C31.2773 41.9376 31.3412 41.9123 31.4086 41.9049C31.2884 41.848 30.8692 41.6767 30.7491 41.6767C30.8089 41.6767 30.929 41.9049 30.8687 42.0756L30.2091 43.7867C30.2091 43.8442 30.1493 43.8442 30.1493 43.8442H29.9694L29.909 43.7867L29.5496 41.9618C29.5496 41.7336 29.6698 41.6198 29.6698 41.6198C29.5496 41.6198 29.1903 41.6772 29.0103 41.7342C29.0701 41.7342 29.2501 41.8485 29.3099 42.0193L29.6698 43.7873C29.6698 43.8448 29.6698 43.8448 29.6094 43.9017C29.5496 43.9017 29.4898 43.9586 29.4295 43.9586H29.3697L28.053 42.5894C27.9328 42.4182 27.9328 42.2474 27.9932 42.2474C27.873 42.3043 27.5734 42.5325 27.5136 42.6469C27.574 42.6469 27.7534 42.6469 27.8736 42.7607L29.192 44.1299V44.1873L29.0719 44.3012H29.0121L27.2141 43.674C27.0341 43.6166 26.9145 43.4459 26.9743 43.3889C26.8541 43.5602 26.7943 43.9022 26.7345 44.0166C26.7943 43.9591 26.9743 43.9022 27.1537 43.9591L28.9517 44.5293V44.8144L27.0341 45.1564C26.8541 45.1564 26.6747 45.0426 26.6747 44.9852C26.6747 45.1564 26.7351 45.5554 26.7949 45.6697C26.7949 45.6123 26.8547 45.4415 27.0945 45.3846L28.9523 45.0426C28.9523 45.0426 29.0126 45.0426 29.0126 45.0995C29.0126 45.1564 29.0126 45.1564 29.0724 45.2139V45.2708L27.574 46.4112C27.3941 46.5825 27.2141 46.5256 27.2141 46.4687C27.2141 46.64 27.5136 46.9251 27.574 46.982C27.574 46.9251 27.574 46.7538 27.6942 46.64L29.2524 45.4996C29.2524 45.4421 29.2524 45.4421 29.3122 45.4996L29.4324 45.6134C29.4928 45.6134 29.4928 45.6134 29.4928 45.6708L28.8333 47.3814C28.7729 47.5527 28.5935 47.6671 28.5337 47.6096C28.6539 47.6671 29.0132 47.8378 29.1932 47.8378C29.073 47.8378 29.0132 47.6665 29.073 47.4958L29.7325 45.7278C29.7325 45.7278 29.7325 45.6708 29.7929 45.6708C29.8527 45.7278 29.9125 45.7278 29.9729 45.7278C29.9729 45.7278 30.0327 45.7278 30.0327 45.7847L30.3926 47.5527C30.3926 47.7809 30.2725 47.8947 30.2127 47.9516C30.3926 47.9516 30.752 47.8378 30.8722 47.7804C30.8124 47.8378 30.6324 47.6665 30.6324 47.5522L30.273 45.7272V45.6703C30.3328 45.6703 30.3932 45.6128 30.453 45.6128C30.5099 45.5554 30.5099 45.5554 30.5697 45.6128ZM83.3705 34.8321C83.3096 34.7752 83.3705 34.7183 83.3705 34.6608C83.4303 34.4895 83.4895 34.4895 83.4895 34.3188C83.1906 34.0906 83.1302 33.6342 83.3096 33.5204C83.4895 33.3491 84.0893 33.5773 84.0893 33.5773C84.6286 33.1784 84.8086 32.8928 85.1081 32.722C85.5273 32.722 86.3662 33.4635 86.3662 33.9199C86.246 34.0912 85.9459 34.3763 85.4675 34.9465C85.6475 35.3454 85.6475 35.631 85.3473 35.8592C85.2875 35.8592 85.1673 35.8592 85.0472 35.7449C85.1081 36.3151 85.7665 36.6571 86.0068 37.114C86.0068 38.0268 87.0257 39.1672 85.8867 39.9086C85.6475 40.023 85.4071 40.1937 85.2881 40.4219C85.4681 41.3347 85.8274 42.3044 86.0074 43.274L84.8684 43.3309C84.7494 43.6735 84.39 44.3006 84.509 44.6432C84.509 44.6432 84.4492 44.5857 84.57 44.6432C84.7499 44.8713 84.8092 46.7538 84.75 46.9245C84.75 47.1527 84.9299 47.1527 84.8097 47.5522C84.6896 47.6091 84.2112 47.8942 84.1502 48.0655C83.8501 48.3505 83.0124 48.408 83.0124 48.2936C83.0124 48.0085 83.6109 47.666 83.7317 47.324C83.8507 45.9548 83.7317 44.5857 82.952 43.5022C82.653 43.3309 82.4126 43.7873 82.2327 44.0155C82.5328 44.8708 83.0721 45.7835 83.0124 46.7532C83.0124 47.0383 83.3717 47.4378 83.1923 47.8367L82.2327 48.2931H78.7563C78.6373 48.1218 78.3969 47.9505 78.4573 47.7229H81.5726C81.5726 47.6085 81.8727 47.666 82.1723 47.2096C82.1723 45.8405 80.6733 43.8442 80.9142 43.1596C81.2132 42.3038 81.6335 41.6198 82.1119 40.4788L82.3522 40.4219C81.8129 42.1331 81.0332 42.9889 81.1534 43.5022C81.2132 43.7873 81.3334 44.0155 81.5128 44.3575L81.6329 44.6995C81.6927 44.8708 81.8721 45.2697 81.9923 45.3841C82.1723 45.3841 82.2925 45.2697 82.4115 45.2128C82.4115 44.9846 82.2315 44.6995 82.1113 44.5282L81.6329 44.6995L81.5128 44.3575C81.8721 44.3575 82.1113 44.1293 81.8129 43.958C82.6524 43.5591 81.6329 43.6729 81.9319 43.5022C82.4115 43.274 82.6524 42.4182 82.7116 41.9049C82.7116 41.7905 82.7714 41.7336 82.8916 41.7336C83.2509 42.6464 83.2509 43.8442 83.8501 44.6995V44.9846C83.7903 45.2128 83.8501 45.4979 83.9703 45.6692C84.5096 45.7261 84.4498 45.6117 84.3296 44.9846C84.2106 44.9846 83.9703 44.9277 83.8501 44.9846V44.6995C83.911 44.6426 84.1502 44.6995 84.2106 44.6426C84.0295 44.3575 84.0295 44.1293 84.0295 43.8442C84.0295 43.6729 84.1496 43.3309 84.2698 44.0724C84.4498 44.1293 84.7494 42.7602 84.8092 42.3043C83.6701 42.5325 84.8092 41.2778 83.9697 41.2209L84.39 40.5363C84.39 40.3081 84.21 40.1368 83.9105 40.2512L83.6701 39.9655C83.4901 39.9086 83.3107 39.6235 83.0716 39.4523C82.8916 39.6235 82.592 39.9655 82.5322 40.1937C82.4724 40.2512 82.6524 40.3075 82.7122 40.2512C82.8922 40.0799 83.0124 40.4219 83.3107 40.365C83.4309 40.2512 83.7903 40.1937 83.6701 39.9655L83.9105 40.2512C83.6701 40.365 83.6701 40.7639 83.6701 41.0496C83.2509 41.7911 83.4309 40.6507 82.9508 40.6507C82.6518 40.8219 82.5316 40.3656 82.3522 40.4225L82.1119 40.4794C82.1119 40.0805 82.1729 39.6241 82.1119 39.1677C82.4724 37.2284 82.8916 37.2853 82.9514 36.7151C82.9514 36.4869 83.8501 36.0305 83.7909 35.8023C83.8507 35.8023 83.9708 35.9736 83.9708 36.0305C83.911 36.3156 83.3113 36.3156 83.3723 36.9427C83.7317 36.3151 84.7511 36.3725 84.8103 35.631C84.6304 35.1747 85.0495 35.4598 85.0495 35.0034C84.9305 34.889 84.5711 34.547 84.5102 34.3757C84.4504 34.3183 84.6901 33.9762 83.8507 33.9762C83.7909 34.0337 83.7317 34.3757 83.6115 34.5464C83.5517 34.6039 83.4315 34.7177 83.4913 34.7746C83.4913 34.8315 83.6115 34.8885 83.6115 35.1166C83.5517 35.3448 83.6115 35.4592 83.7317 35.573C84.2112 35.8012 84.5711 35.573 84.0306 35.8587C84.0306 35.9156 84.0306 35.9725 83.9708 36.03C83.9708 35.9725 83.7909 35.7449 83.7317 35.6874C83.6707 35.6874 83.3723 35.5161 83.4315 35.2885C83.4895 35.0608 83.4895 34.947 83.3705 34.8321ZM67.248 32.6651C67.3089 33.0646 67.068 33.3497 67.068 33.7492C67.4883 34.7188 67.068 35.4603 67.1882 36.3731C66.7086 36.088 66.5896 35.3465 66.4096 34.5481C66.2895 33.8635 66.4694 33.6354 66.5286 32.8939L67.248 32.6651ZM65.9899 32.9502C65.9301 34.1475 65.7507 34.7183 66.6494 36.6007C64.3719 37.5129 62.5135 38.1406 59.8174 38.8821C60.1164 37.0571 61.9748 33.5773 63.533 32.6077C64.8514 32.9502 65.9899 32.9502 65.9899 32.9502Z" fill="black"/>
<path fill-rule="evenodd" clip-rule="evenodd" d="M60.1159 46.3544C59.5173 46.5257 59.5173 46.8677 59.8767 47.2103C60.1159 47.381 60.3562 47.6666 60.3562 47.7235H56.5205C56.5205 47.8948 56.7005 48.0086 56.8201 48.2937H78.0358C78.156 48.0086 77.7967 47.6661 77.6765 47.3241C76.1775 46.8108 76.1775 45.4991 76.1183 44.0156C76.1183 43.9581 75.9981 43.7874 75.9981 43.5023C75.8181 43.2741 74.8004 40.9353 75.2788 39.0529L75.6381 38.4258C75.9383 38.0263 75.5784 37.7981 75.8181 37.3417L80.2536 36.5434C80.3134 36.4859 80.3134 36.3152 80.1938 36.2583C80.1938 36.2013 80.2536 36.2583 80.1938 36.2583L75.8785 36.9997C76.1177 35.9732 75.1592 35.6306 75.5784 34.7753C76.1769 35.4024 77.7961 36.4859 78.6356 36.6572L79.0553 36.6008C77.9766 36.1444 76.0591 35.0604 74.9804 33.6349C74.8602 33.6349 74.74 33.5205 74.621 33.4636C74.621 33.5774 74.92 33.92 74.8602 33.9769C74.8602 33.9769 74.1409 34.4333 72.8219 33.8625C72.4027 34.6609 67.7281 36.6572 67.7281 36.6572C67.9081 37.9125 68.5078 38.7109 69.1661 39.3954C69.2271 39.5093 68.9862 39.2811 69.1661 39.3954C70.1258 40.1369 71.2637 40.4789 72.5235 40.7071C72.7627 41.3917 73.6614 43.6161 73.7212 43.9581C73.8413 44.3001 74.0213 44.3001 74.0213 44.3001C74.1415 44.4145 74.5606 45.156 74.5606 45.4411L74.6808 46.6389C74.7406 46.924 75.1 46.6959 75.1604 46.981L74.9804 47.7224H75.8791C75.3996 47.3235 75.6991 46.6389 75.0994 46.3533C75.0396 45.6687 74.9804 45.1554 74.6802 44.8703C74.4411 44.1858 73.6614 42.3608 73.1812 40.7066L73.4814 40.3071C72.1624 40.6497 71.1447 40.1933 69.9458 39.5656C69.0471 39.1661 69.5865 39.5081 69.8849 39.3374C71.3241 39.9651 72.0434 39.7938 73.1214 39.68C73.2416 39.8513 73.4808 40.022 73.4808 40.3071L73.1807 40.7066C73.4808 40.4215 73.72 40.5922 73.9 41.3911C74.1403 42.0757 74.3795 42.5884 74.5595 43.1592C74.7998 43.7294 74.9798 44.4714 75.1592 44.8703C75.1592 44.8703 75.3392 44.8703 75.4582 45.0985C75.8785 46.3533 75.9975 46.5246 75.9377 47.0948C76.0579 47.5512 76.7174 47.1522 76.657 47.7224H60.895C61.1341 46.8097 60.5948 46.0113 60.895 45.1554C60.2952 44.2427 58.7974 43.5587 59.0366 42.3033C59.7559 41.3337 62.0938 40.364 61.5545 39.2231C63.7118 38.1965 64.7905 39.9076 66.769 39.7363C67.4883 39.7363 68.2668 39.622 68.9264 39.4512C68.0869 38.8236 67.3682 37.8545 66.949 36.9986C62.7539 38.6523 58.6778 39.9645 54.1826 40.8204L53.8232 40.706C53.4041 40.7629 46.5715 42.2459 46.8113 42.531C44.2342 42.7023 41.2374 43.7288 40.5785 44.0708C40.2789 44.2421 40.2185 44.3559 40.5785 44.4703C43.3355 45.1549 45.6124 44.6416 49.8679 43.1012L49.5683 42.873C49.3286 43.0443 45.8528 44.1852 44.474 44.3559C43.0354 44.5272 41.7767 44.4703 41.1776 44.2985C40.9976 44.2416 40.9976 44.2416 41.1172 44.1846C43.8145 43.1581 49.0284 42.2453 49.7477 43.1012C50.1669 43.2155 50.467 43.4432 50.7068 43.7288C50.9466 44.0145 51.4261 43.9001 51.7855 43.8432C52.2644 43.7288 52.3248 43.3299 52.3248 42.9304L51.7855 42.873C51.5457 42.873 50.5866 42.9873 50.467 43.1012C50.1077 42.8161 49.7477 42.531 49.2682 42.4166C50.2273 42.0177 51.7855 41.6751 52.6244 41.6182C51.8453 42.1315 52.2052 42.7586 51.7855 42.873L52.3248 42.9304C52.3248 42.7023 52.3248 42.531 52.445 42.4172C52.9843 41.1624 55.2619 40.9911 56.4003 40.706C56.4003 40.706 55.8012 41.4475 55.3814 41.6188C55.2618 43.3868 54.6023 44.9272 54.4822 46.6953C55.0215 46.6953 55.0215 47.2655 55.1417 47.6081C54.9617 47.8932 54.7219 47.6081 54.4822 47.6655C53.6433 47.2661 54.6621 46.582 54.0026 46.0113C54.3626 44.5852 54.9019 43.1592 54.9019 41.6762C54.6621 41.6762 54.6023 41.9044 54.4822 42.0751C54.3022 43.5012 53.883 44.8129 53.5237 46.1245C53.6433 46.2389 53.9434 46.3527 53.9434 46.5809C53.4639 46.866 53.9434 47.3793 53.7634 47.7213H48.3097L47.7704 48.2915H56.041L56.1007 48.0064C54.9025 46.7516 55.3216 44.9261 55.9208 43.5575L57.3594 41.7326C58.5582 41.2762 59.2775 39.9076 60.5356 39.4512C60.5356 40.0789 59.7559 40.3065 59.3368 40.6491C58.8572 41.6188 57.4784 41.7326 57.299 42.8166C57.8378 43.3868 58.618 43.7863 59.2775 44.2996C59.9359 44.6991 59.7559 45.5543 60.236 45.9538C60.3568 46.0693 60.236 46.2975 60.1159 46.3544Z" fill="black"/>
<path fill-rule="evenodd" clip-rule="evenodd" d="M69.2863 25.7636C69.0471 26.1057 68.567 26.3338 68.8671 26.9615C68.2674 27.3041 68.4468 27.8174 68.6268 28.1025C68.3266 28.3876 68.1472 28.9583 68.567 29.3003C68.0874 29.8136 68.6871 30.27 68.8671 30.4407C68.6268 30.954 68.8671 31.3535 68.8671 31.3535C68.8061 31.6955 68.1466 32.2662 67.9074 32.437C67.5481 33.2928 67.6683 35.0609 67.7275 36.2587C69.4059 35.4603 71.0837 34.7189 72.4027 33.6348C71.2636 32.8933 70.3643 31.1253 69.1063 31.2391C68.9861 29.9843 68.4468 27.7599 70.3051 25.4785C70.5443 25.3642 70.9037 25.3073 71.0837 25.1929C70.3051 25.0791 69.2863 25.5349 68.567 25.136C68.567 25.1365 68.9269 25.7067 69.2863 25.7636Z" fill="black"/>
<path fill-rule="evenodd" clip-rule="evenodd" d="M73.302 25.1929C73.302 25.2503 73.5412 25.3642 73.5412 25.3642C73.5412 25.3642 73.7815 25.3073 73.7815 25.2503C73.7815 25.1934 73.8413 25.0222 73.7815 24.9652C73.7206 24.9652 73.5412 24.9083 73.4222 24.9083C73.4222 24.9078 73.302 25.1365 73.302 25.1929L73.1818 25.3073L72.3423 24.7371L72.4625 24.6227C72.4625 24.6227 72.8219 24.2801 73.0018 24.2801C73.1818 24.2232 74.1409 24.2801 74.3807 24.4514C74.5606 24.6227 74.6808 24.7365 74.92 25.136C75.5795 25.5918 76.6582 25.5918 77.3177 26.1051C77.1975 26.2764 77.4977 26.5615 77.2579 26.6753C77.0779 26.7327 76.6582 26.6184 76.5984 26.7327L76.5386 27.0748L76.2982 27.0173C76.2982 27.0173 76.4184 26.6184 76.2982 26.6184C76.178 26.5615 75.9389 26.4471 75.8187 26.504C75.7589 26.5615 75.8187 26.6184 75.8797 26.7322C75.8797 26.846 76.1786 26.9035 76.3592 26.846L76.5984 26.9035L76.8985 26.9604C76.7783 27.2455 76.7186 27.3593 76.2988 27.2455C76.1786 27.5306 76.8381 27.7588 76.8985 27.8731C76.8376 27.9875 76.7186 28.1013 76.2988 27.8731C76.2988 27.8731 74.5606 29.4705 73.5418 29.9268C72.4631 30.3832 73.482 29.6987 73.482 29.6987C73.9615 29.5274 76.059 27.8162 76.059 27.6455C75.9981 27.5311 75.8791 27.3035 75.8791 27.1322C75.5789 27.0178 74.9804 27.1891 74.74 27.3598C74.8602 27.8731 75.8187 30.4401 75.0994 34.3188L74.9804 34.205C75.6387 30.4401 74.56 27.4173 74.56 27.4173C73.9615 27.6455 73.5412 27.4748 73.2422 27.5317C73.122 29.8699 75.0994 30.2125 74.3801 33.2928C72.2825 32.9508 70.7847 30.4976 69.5859 30.7258C69.5249 30.3263 69.1063 29.6423 69.5249 29.4136C69.4059 29.0716 69.2857 28.6152 69.825 28.3301C69.6451 27.8737 69.5858 27.4748 70.1252 27.1328C70.005 26.8471 70.0642 26.22 70.7237 26.1056C70.7847 25.5924 71.0239 25.1929 71.5034 25.0222C70.9641 24.794 70.8439 24.2807 70.8439 24.2807C71.3234 24.5663 71.7426 24.7371 72.4619 24.6232L73.302 25.1929ZM52.9245 67.8577L52.8641 64.6636C52.8641 63.694 52.2052 62.6663 51.3059 62.0961C51.126 62.0392 50.8264 61.9248 50.5866 61.9248C50.8264 61.9248 51.126 61.9248 51.4261 61.8104C52.3248 61.4115 53.4041 60.3274 53.4041 58.4456C53.4041 57.019 52.8049 55.936 51.7257 55.194C50.7068 54.5094 49.5683 54.3387 48.3695 54.3387H39.1404V56.6206H41.238V67.8577H39.1404V70.0816H45.7332V67.8577H43.6351V62.895H48.1901C49.7483 62.9519 50.3474 63.9216 50.3474 64.72L50.5274 70.081H55.0221V67.8572H52.9245V67.8577ZM48.669 60.728H43.6351V56.6212H48.3701C48.9094 56.6212 49.5085 56.6212 49.9881 56.7925C50.5872 57.0781 51.1271 57.7058 51.1271 58.6743C51.1265 59.8727 49.9881 60.728 48.669 60.728ZM38.3009 75.672C40.4589 75.672 41.4173 76.8129 41.4173 78.2384C41.4173 79.665 40.3985 80.7479 38.121 80.7479H36.5627V84.6841H35.1845V75.6725H38.3009V75.672ZM36.5627 79.6081H38.2411C39.26 79.6081 39.9787 79.0937 39.9787 78.1815C39.9787 77.4969 39.5596 76.8129 38.3003 76.8129H36.5622V79.6081H36.5627ZM52.1454 84.6841H50.647L49.4487 82.0033H45.3134L44.175 84.6841H42.6766L46.8717 75.6145H47.8307L52.1454 84.6841ZM45.8528 80.8054H48.9094L47.2914 77.2682L45.8528 80.8054ZM67.9075 84.6841H66.5292V75.672H67.9075V84.6841ZM77.7972 77.6107C76.8985 76.9262 76.059 76.6986 75.3403 76.6986C74.4416 76.6986 73.7211 77.0975 73.7211 77.7251C73.7211 79.4937 78.1566 79.4357 78.1566 82.3453C78.1566 83.7139 76.9577 84.7404 75.2794 84.7404C74.2007 84.7404 73.2422 84.5128 72.4033 83.9426V82.2884C73.1818 83.1437 74.1415 83.6006 75.1603 83.6006C76.2982 83.6006 76.8376 82.9729 76.8376 82.4597C76.8376 80.6347 72.3423 80.4054 72.3423 77.9539C72.3423 76.4709 73.6016 75.5576 75.4587 75.5576C76.2982 75.5576 77.0169 75.7289 77.7966 76.1853V77.6107H77.7972ZM62.0944 83.6006C61.9144 83.3719 61.735 83.1442 61.555 82.8586C60.8357 81.7176 60.236 80.9187 59.3373 80.4059C60.416 80.007 61.0157 79.2086 61.0157 78.1821C61.0157 76.6422 59.7565 75.6725 57.7193 75.6725H55.2618V84.6841H56.6999V80.7479H57.299C58.0177 80.7479 58.618 80.9767 59.8761 82.8022L61.1951 84.6841H62.8131L62.0944 83.6006ZM57.5991 79.6081H56.6999V76.7555H57.5991C58.978 76.7555 59.5167 77.2687 59.5167 78.1252C59.5765 78.8661 59.1579 79.6081 57.5991 79.6081Z" fill="black"/>
</svg>
