<svg width="114" height="109" viewBox="0 0 114 109" fill="none" xmlns="http://www.w3.org/2000/svg">
<path d="M106.053 32.135C105.697 32.1347 105.345 32.2013 105.016 32.331C104.687 32.4607 104.388 32.651 104.137 32.8908C103.886 33.1306 103.687 33.4153 103.551 33.7286C103.416 34.0418 103.346 34.3775 103.348 34.7162C103.347 35.0544 103.417 35.3894 103.552 35.7019C103.688 36.0145 103.887 36.2984 104.139 36.5374C104.39 36.7764 104.689 36.9658 105.017 37.0947C105.346 37.2236 105.698 37.2894 106.053 37.2884C107.555 37.2884 108.765 36.143 108.765 34.7162C108.766 34.377 108.696 34.0411 108.56 33.7276C108.424 33.4141 108.225 33.1293 107.973 32.8894C107.721 32.6496 107.421 32.4595 107.092 32.3301C106.762 32.2006 106.409 32.1343 106.053 32.135M106.053 32.6444C107.256 32.6444 108.236 33.5704 108.236 34.7162C108.236 35.8556 107.257 36.7877 106.053 36.7877C104.853 36.7877 103.886 35.8556 103.886 34.7162C103.886 33.5708 104.853 32.6444 106.053 32.6444ZM107.432 36.0589L107.107 35.5219C106.825 35.0498 106.744 34.9786 106.507 34.8952V34.883C106.981 34.8307 107.264 34.5372 107.264 34.1356C107.264 33.7129 106.981 33.3918 106.378 33.3918H104.983V36.0592H105.56V34.9664H105.664C105.911 34.9664 106.011 34.9911 106.125 35.0992C106.235 35.2073 106.407 35.4325 106.508 35.624L106.732 36.0592L107.432 36.0589V36.0589ZM105.56 34.5372V33.8084H106.079C106.462 33.8084 106.663 33.9351 106.663 34.17C106.663 34.3579 106.536 34.5369 106.147 34.5369L105.56 34.5372V34.5372ZM92.0639 46.8804C91.9469 49.6284 87.7171 60.6165 86.2149 63.0398C85.5635 64.0925 84.83 64.9602 83.5065 64.957C82.3518 64.957 81.8388 64.1788 81.8065 63.29C81.7211 60.8105 86.5034 48.381 88.1387 46.3586C88.8654 45.2929 89.6763 45.1208 90.6042 45.1329C91.9612 45.1487 92.0962 46.0811 92.0639 46.8804M99.772 51.3666C98.8117 55.9205 96.6513 61.3073 94.3021 65.3214C90.474 71.8729 85.8256 72.7893 81.7677 72.7431C77.7128 72.6969 73.1317 71.2709 73.0994 65.3117C73.0738 61.0324 75.0131 54.9934 76.6619 51.0352C79.5294 43.8568 82.462 38.0068 91.7333 38.1117C102.543 38.2327 100.616 47.3837 99.772 51.3666V51.3666ZM65.4473 44.9847C63.8804 44.9847 62.8582 45.9265 62.0961 46.9452C60.4221 49.1835 56.7888 58.1584 56.2246 61.8449C55.8417 64.371 56.9844 64.8829 58.2387 64.8829C60.2472 64.8829 62.4982 62.8608 63.267 59.5233C63.267 59.5233 59.4419 59.4334 60.4969 56.2065C61.5188 53.073 63.4656 52.3968 66.6866 52.2701C73.0351 52.0235 72.4062 56.4843 71.8996 58.8618C70.2507 66.5867 64.4739 72.7922 56.3013 72.7922C50.707 72.7922 47.2362 69.8441 47.2362 64.4168C47.2362 60.5506 49.2526 54.478 50.8496 50.9249C54.2511 43.3607 57.8197 38.0659 66.9097 38.0659C72.3626 38.0659 76.665 39.9305 76.032 44.7932C75.5712 48.3624 73.6959 50.4585 70.2876 50.7116C69.3333 50.7821 65.4312 50.6869 66.7254 47.1736C67.1756 45.948 67.3636 44.9847 65.4473 44.9847V44.9847ZM37.0078 58.3599C36.6317 59.3257 35.9246 61.342 35.3536 63.4819C37.2075 63.0434 38.5991 62.7319 40.9837 62.7903C43.7022 62.8519 45.4395 63.9268 45.4395 66.063C45.4395 71.2465 39.4202 72.7689 35.2434 72.7689C30.6563 72.7689 26.6304 70.2833 26.6304 65.5129C26.6304 59.9152 29.8161 51.4343 32.8054 45.7844C36.4793 38.8437 40.233 37.9206 46.695 37.9206C49.5354 37.9206 52.8069 39.0757 52.8069 41.6257C52.8069 45.1641 49.6584 46.5128 46.5344 46.6861C45.2026 46.757 43.1509 46.8278 41.9247 46.7448C41.9247 46.7448 40.8848 48.2546 39.7786 50.9375C45.5614 50.1625 48.014 51.4132 47.0373 54.5961C45.7182 58.8936 41.801 59.1778 37.0078 58.3599ZM18.5913 63.3329C24.2473 62.398 25.6702 64.3459 25.49 66.1429C24.9597 71.5393 19.7576 72.7435 15.242 72.6447C11.9672 72.5706 9.02293 71.1449 8.94056 67.526C8.79801 61.1967 15.5812 46.5533 18.7763 41.7002C20.2492 39.3943 22.0463 38.2578 24.9123 38.2578C27.626 38.2578 28.3007 39.5822 28.2601 41.1722C28.1548 45.4107 20.9529 58.2976 18.5913 63.3329V63.3329ZM91.3184 34.8984C85.4792 34.8984 81.4435 37.1027 78.7118 40.1778C78.251 39.2582 77.8971 38.8538 77.404 38.3222C75.1688 35.9171 71.5709 34.7932 66.7472 34.7932C62.0341 34.7932 58.1044 36.1949 55.3772 38.4024C53.9597 36.2103 50.584 34.7559 46.5111 34.7559C41.1894 34.7559 35.3935 35.4754 31.952 40.7487C31.8723 38.8495 31.6891 37.8465 30.5668 36.7136C29.2041 35.3426 26.9982 34.9814 24.8491 34.9814C20.9319 34.9814 17.9861 36.6087 15.866 39.9251C12.7909 44.6021 5.33249 59.99 5.50287 67.4397C5.60818 72.2559 9.00337 75.7234 15.0761 75.8591C19.8223 75.9672 23.5432 74.7598 25.9112 72.4875C28.0348 74.6796 31.2769 75.97 35.1539 75.97C39.4713 75.97 43.8203 74.7387 46.3881 72.0401C48.5519 74.5654 51.9531 76.0352 56.3277 76.0159C62.0503 75.9919 67.0718 73.4107 70.3556 69.4521C72.1523 74.1169 76.7202 75.9697 81.7098 75.9697C92.6419 75.9697 97.4397 68.8193 101.44 57.5069C102.342 54.9565 103.543 50.7055 103.744 47.1339C104.074 41.1876 101.43 34.8984 91.3184 34.8984V34.8984Z" fill="black"/>
</svg>
