<svg width="114" height="109" viewBox="0 0 114 109" fill="none" xmlns="http://www.w3.org/2000/svg">
<path fill-rule="evenodd" clip-rule="evenodd" d="M86.0315 82.7286H86.8358V89.1292L81.9199 84.285V88.8911H81.0931V82.4253L86.0315 87.2914V82.7286ZM62.9261 82.7286V86.6423C62.9261 87.3341 62.719 87.8963 62.3052 88.3293C61.8693 88.805 61.2722 89.0211 60.5141 89.0211C59.8021 89.0211 59.2053 88.805 58.7683 88.3293C58.3324 87.8963 58.1249 87.3341 58.1249 86.6423V82.7286H58.9525V86.3827C58.9525 87.6586 59.4577 88.3078 60.5141 88.3078C61.5932 88.3078 62.1218 87.6586 62.1218 86.3827V82.7286H62.9261ZM65.4524 82.7286H69.3799V83.4424H67.8183V88.8915H67.0373V83.4424H65.4524V82.7286V82.7286ZM64.0285 82.7286H64.8553V88.8915H64.0285V82.7286ZM56.7933 82.7286H57.6891L54.8408 89.2372L51.993 82.7286H52.8888L54.8412 87.2914L56.7933 82.7286V82.7286ZM79.5773 85.8205C79.5773 86.5123 79.3245 87.0964 78.7967 87.5937C78.3143 88.0694 77.6942 88.3074 76.9815 88.3074C76.2695 88.3074 75.6495 88.0694 75.1217 87.5937C74.5932 87.0961 74.3407 86.5123 74.3407 85.8205C74.3407 85.1287 74.5703 84.5445 75.0756 84.0688C75.5808 83.572 76.2242 83.3339 76.9815 83.3339C77.7396 83.3339 78.3597 83.572 78.8421 84.0688C79.3249 84.5445 79.5773 85.1283 79.5773 85.8205ZM79.3939 83.5501C78.7052 82.9229 77.9009 82.5987 76.9819 82.5987C76.0404 82.5987 75.2369 82.9229 74.5474 83.5501C73.8816 84.1769 73.5369 84.9341 73.5369 85.8201C73.5369 86.7281 73.882 87.4852 74.5474 88.1121C75.2136 88.7177 76.0175 89.0207 76.9819 89.0207C77.9242 89.0207 78.7506 88.7177 79.3939 88.1121C80.0601 87.4852 80.4044 86.7281 80.4044 85.8201C80.4048 84.9341 80.0605 84.1769 79.3939 83.5501ZM73.3534 82.7286V83.4424H71.8143V88.8915H70.9876V83.4424H69.426V82.7286H73.3534ZM35.3638 84.0688C35.8462 84.5445 36.0758 85.1287 36.0758 85.8205C36.0758 86.5123 35.823 87.0964 35.3181 87.5937C34.8128 88.0694 34.1924 88.3074 33.4804 88.3074C32.7684 88.3074 32.1484 88.0694 31.6202 87.5937C31.1378 87.0961 30.8625 86.5123 30.8625 85.8205C30.8625 85.1287 31.1149 84.5445 31.5973 84.0688C32.1026 83.572 32.7231 83.3339 33.4808 83.3339C34.2385 83.3339 34.8818 83.572 35.3638 84.0688ZM35.8924 83.5501C35.2033 82.9229 34.3994 82.5987 33.4808 82.5987C32.5389 82.5987 31.7125 82.9229 31.0692 83.5501C30.3801 84.1769 30.0358 84.9341 30.0358 85.8201C30.0358 86.7281 30.3805 87.4852 31.0692 88.1121C31.7125 88.7177 32.5164 89.0207 33.4808 89.0207C34.4456 89.0207 35.2494 88.7177 35.8924 88.1121C36.5815 87.4852 36.9029 86.7281 36.9029 85.8201C36.9029 84.9341 36.5815 84.1769 35.8924 83.5501ZM38.3959 86.3823C38.3959 87.6583 38.924 88.3074 39.9807 88.3074C41.0146 88.3074 41.5656 87.6583 41.5656 86.3823V82.7283H42.3695V86.6419C42.3695 87.3337 42.1628 87.8959 41.7261 88.3289C41.2899 88.8046 40.6927 89.0207 39.9807 89.0207C39.2459 89.0207 38.6716 88.8046 38.2354 88.3289C37.7758 87.8959 37.5695 87.3337 37.5695 86.6419V82.7283H38.3963V86.3823H38.3959ZM27.9681 82.7286V88.1993H29.9663V88.8911H27.1642V82.7283H27.9681V82.7286ZM47.6518 85.2583C48.7543 85.6686 49.2828 86.2743 49.2828 87.0961C49.2828 87.6583 49.0761 88.1121 48.6627 88.4801C48.2722 88.8477 47.7898 89.0211 47.2155 89.0211C46.6874 89.0211 46.2279 88.8696 45.8378 88.5235C45.4702 88.1993 45.2406 87.7882 45.1716 87.2914L45.9983 87.118C45.9983 87.4641 46.1131 87.7452 46.3659 87.9832C46.6188 88.1993 46.8941 88.3074 47.2617 88.3074C47.6064 88.3074 47.8818 88.1774 48.1346 87.9398C48.3413 87.7236 48.4561 87.4422 48.4561 87.0964C48.4561 86.6207 48.0884 86.2319 47.3307 85.9285L46.8712 85.7778C45.9525 85.3667 45.4702 84.8479 45.4702 84.1988C45.4702 83.7231 45.6768 83.3124 46.0445 83.0309C46.4349 82.7286 46.8712 82.5987 47.3997 82.5987C48.1575 82.5987 48.7089 82.9229 49.0761 83.5501L48.4332 83.8962C48.1803 83.5285 47.836 83.3339 47.3765 83.3339C47.1008 83.3339 46.825 83.3986 46.6184 83.5501C46.3888 83.7227 46.2736 83.9396 46.2736 84.1984C46.2736 84.5661 46.5722 84.8476 47.2151 85.0637L47.6518 85.2583V85.2583ZM43.4719 82.7286H44.2991V88.8915H43.4719V82.7286ZM75.7248 27.0199L59.8833 62.2203L55.513 53.1917L63.5856 32.5058C64.1926 30.9061 66.3166 30.163 69.8982 30.163L71.1722 27.0199H52.3567L51.1426 30.163C53.8133 30.163 54.9059 30.9057 54.4807 32.5058L50.4752 43.0202L42.5848 27.0199C41.1282 25.3058 41.8563 24.4484 44.7093 24.4484V20.7345H26.5V24.4487C29.8993 24.4487 32.0233 25.3062 32.9341 27.0203L46.2874 53.7636L40.0356 69.4779C39.9137 71.592 36.3937 72.6213 29.5956 72.6213L28.3211 75.764H80.277L87.5 61.3068H83.7367C80.2167 68.7924 76.15 72.6213 71.5978 72.6213H47.7437L51.2641 63.764L54.2989 69.4779H61.097L80.2766 27.0207C81.1874 24.4491 83.5548 23.0781 87.257 23.0781V19.7627H71.5974V23.0773C76.3319 23.0773 77.6674 24.4487 75.7248 27.0199V27.0199Z" fill="black"/>
</svg>
