<svg width="114" height="113" viewBox="0 0 114 113" fill="none" xmlns="http://www.w3.org/2000/svg">
<path d="M23.147 51.003C21.1799 51.003 19.4878 51.7508 18.2951 53.2709C16.9064 51.6365 15.1243 50.6999 12.8821 50.8893C11.1508 51.0414 9.64379 51.9787 8.59474 53.2709V51.4471H2.5V67.5943H8.59474V58.4887C8.59474 57.2857 9.2372 56.1707 10.615 56.1707C11.9899 56.1707 12.4755 57.3236 12.4755 58.4887V67.5943H18.7807V58.8303C18.7807 57.6022 19.095 56.1456 20.6804 56.1456C22.2404 56.1456 22.6222 57.3865 22.6222 58.6531V67.5943H28.9921V56.1328C28.9921 52.9031 26.3034 51.003 23.147 51.003ZM41.0241 61.68C41.0241 62.9465 40.1065 63.9222 38.757 63.9222C37.6964 63.9222 36.7114 63.1873 36.7114 62.1107C36.7114 60.7048 38.2213 60.4897 39.3603 60.4897H41.0241V61.68ZM38.4427 50.9528C35.1006 50.9528 30.5267 51.8901 30.5267 55.9556C30.5267 56.1963 30.5521 56.4365 30.5774 56.6778H36.9104C37.0003 55.4112 37.5782 54.4611 39.0206 54.4611C40.1602 54.4611 41.0241 55.1454 41.0241 56.2721V57.2472H36.4109C32.9766 57.2472 30.0665 58.7924 30.0665 62.5164C30.0665 65.8346 32.8728 68 36.1895 68C37.9854 68 39.6492 67.43 41.0241 66.3411V67.5943H47.1609V56.6778C47.1609 51.7251 42.5593 50.9528 38.4427 50.9528ZM43.6482 45H35.3619L28.6241 50.1928H36.9611L43.6482 45ZM46.5831 50.1928L53.2955 45H44.9694L38.2605 50.1928H46.5831ZM55.1415 53.2709V51.4471H48.9176V67.5943H55.1415V60.4897C55.1415 58.2101 56.848 57.3865 59.0084 57.3865C59.4294 57.3865 59.836 57.3994 60.2432 57.4122V51.1428C59.836 51.0921 59.4156 51.0414 59.0084 51.0414C57.2938 51.0414 56.0983 52.0038 55.1415 53.2709ZM77.453 51.4471H70.0866L67.0058 56.0949V45H60.7536V67.5943H67.0058V61.5535L70.4009 67.5943H77.7165L72.4327 59.0209L77.453 51.4471ZM77.8849 67.5943H84.0333V45.1014H77.8849V67.5943ZM85.7 67.5943H91.7809V51.4465H85.7V67.5943ZM91.7804 45L84.8719 50.1928H92.8017L99.528 45H91.7804ZM109.044 52.8145C107.943 51.6616 106.355 51.0542 104.744 51.0542C102.738 51.0542 100.892 51.9029 99.7246 53.4609V51.4471H93.627V67.5943H99.7246V58.9702C99.7246 57.4378 100.249 56.1328 102.056 56.1328C103.788 56.1328 104.273 57.3236 104.273 58.7545V67.5943H110.5V56.9307C110.5 55.3727 110.183 53.9925 109.044 52.8145Z" fill="black"/>
</svg>
