<svg width="114" height="109" viewBox="0 0 114 109" fill="none" xmlns="http://www.w3.org/2000/svg">
<path fill-rule="evenodd" clip-rule="evenodd" d="M82.6978 54.3093C82.0077 52.6306 80.3395 51.3355 78.5564 50.9158C73.6683 49.6751 67.4761 50.168 64.1017 54.0539C62.1465 56.4438 60.9968 60.0382 62.4533 63.067C63.1631 64.8367 65.1371 66.1136 66.9966 66.4422C71.0995 66.9529 76.39 67.1721 79.6879 64.3077C82.7737 61.8629 83.8095 57.7761 82.6978 54.3093ZM72.5763 61.4977C72.1161 61.6615 71.3683 61.7347 70.9466 61.4244C69.9685 60.9132 70.294 59.764 70.4089 58.9974C70.8691 57.5741 71.387 55.5673 73.2466 55.2936C73.8575 55.2372 74.6267 55.4946 74.8763 56.1696C75.0484 58.2313 74.4263 60.3282 72.5763 61.4977ZM28.1042 42.6038L24.6535 52.129L22.0301 42.6038H15.0591L6.5 65.8577H14.6448L17.8893 56.9901L20.3053 65.8577H27.6905L36.2491 42.6038H28.1042ZM41.6102 49.5413C43.048 49.3404 44.5623 48.9029 45.3485 47.5523C45.9237 46.4759 45.7131 45.1803 45.023 44.2321C43.9112 43.1191 42.3772 43.0097 40.748 43.1008C39.2525 43.3017 37.7382 44.0128 37.2016 45.4906C36.9525 46.421 37.0097 47.5523 37.6618 48.3001C38.6196 49.4136 40.1729 49.5774 41.6102 49.5413ZM35.6771 51.0989L30.2246 65.879H37.9552L43.4077 51.0989H35.6771Z" fill="black"/>
<path fill-rule="evenodd" clip-rule="evenodd" d="M65.5765 51.0781H56.6038L52.1171 56.0699L57.0175 42.6038H49.149L40.5905 65.8577H48.4589L50.6675 60.0118L51.9102 65.8577H60.124L58.7429 58.7634L65.5765 51.0781ZM100.909 50.9016C97.4583 50.9016 95.1802 52.3468 94.007 53.3321L94.9039 51.0984H86.7596L81.306 65.8785H89.4508L92.0742 58.7843C92.4874 57.6677 93.1774 57.1417 94.3512 57.1417C95.525 57.1417 95.8013 58.2583 95.4555 59.178L92.9711 65.8785H100.84L104.36 56.2876C105.327 53.6602 104.36 50.9016 100.909 50.9016ZM104.88 62.7826C104.667 62.782 104.455 62.8213 104.258 62.8984C104.061 62.9755 103.881 63.0889 103.73 63.2321C103.579 63.3752 103.459 63.5453 103.376 63.7327C103.294 63.92 103.252 64.121 103.251 64.324C103.251 64.5276 103.293 64.7294 103.374 64.9177C103.456 65.1059 103.576 65.277 103.727 65.421C103.879 65.5651 104.058 65.6793 104.256 65.7571C104.454 65.8349 104.666 65.8748 104.88 65.8745C105.093 65.8742 105.305 65.8338 105.502 65.7557C105.699 65.6776 105.878 65.5633 106.028 65.4192C106.179 65.2752 106.298 65.1043 106.379 64.9163C106.46 64.7284 106.501 64.5271 106.5 64.324C106.5 64.1215 106.458 63.921 106.377 63.734C106.295 63.547 106.176 63.377 106.025 63.2339C105.875 63.0908 105.696 62.9772 105.5 62.8998C105.303 62.8224 105.093 62.7826 104.88 62.7826ZM104.88 65.6883C104.692 65.6885 104.505 65.6533 104.332 65.5848C104.158 65.5162 104 65.4157 103.867 65.2889C103.734 65.1621 103.629 65.0116 103.558 64.846C103.486 64.6804 103.45 64.503 103.451 64.324C103.451 64.1456 103.488 63.969 103.56 63.8043C103.632 63.6396 103.737 63.49 103.87 63.364C104.003 63.2381 104.16 63.1384 104.333 63.0704C104.507 63.0025 104.692 62.9678 104.88 62.9683C105.258 62.9684 105.62 63.1113 105.887 63.3655C106.154 63.6198 106.304 63.9645 106.304 64.324C106.305 64.5026 106.269 64.6797 106.198 64.845C106.126 65.0103 106.022 65.1606 105.889 65.2874C105.757 65.4141 105.6 65.5148 105.427 65.5836C105.253 65.6524 105.068 65.6879 104.88 65.6883Z" fill="black"/>
<path fill-rule="evenodd" clip-rule="evenodd" d="M105.714 63.92C105.714 63.774 105.645 63.6203 105.509 63.5476C105.373 63.4708 105.22 63.4626 105.068 63.4626H104.276V65.1907H104.498V64.3936H104.906L105.425 65.1907H105.688L105.14 64.3936C105.462 64.3854 105.714 64.2598 105.714 63.92ZM104.837 64.2252H104.498V63.6142H105.017C105.241 63.6142 105.489 63.6463 105.489 63.9139C105.488 64.2654 105.093 64.2252 104.837 64.2252Z" fill="black"/>
</svg>
