<svg width="114" height="109" viewBox="0 0 114 109" fill="none" xmlns="http://www.w3.org/2000/svg">
<path fill-rule="evenodd" clip-rule="evenodd" d="M40.2956 71.3324L34.529 58.6928L29.2333 76.4876H31.7737L35.0672 65.371L40.2956 76.8586L45.5385 65.371L48.8179 76.4876H51.3588L46.0756 58.6928L40.2956 71.3324V71.3324ZM19.1112 58.6928H19.0705C16.3151 58.7057 14.0164 59.6266 12.1614 61.469C10.3868 63.2474 9.5 65.3451 9.5 67.7757C9.5 70.168 10.3602 72.2404 12.081 74.0054C13.936 75.8989 16.2613 76.8452 19.071 76.8586H19.1117C21.8002 76.8586 24.0848 75.9372 25.9534 74.0823C27.7547 72.304 28.655 70.1934 28.655 67.7757C28.655 65.3322 27.7547 63.2216 25.9534 61.4432C24.0984 59.6142 21.8269 58.6928 19.1112 58.6928V58.6928ZM24.0311 72.7009C22.7403 74.0058 21.1003 74.6586 19.084 74.6586H19.0705C17.0542 74.6586 15.4012 73.9929 14.1104 72.6756C12.8332 71.3453 12.1881 69.7204 12.1881 67.802C12.1881 65.8826 12.8332 64.2453 14.1104 62.9021C15.4012 61.5589 17.0542 60.8938 19.0705 60.8938H19.084C21.1003 60.8938 22.7403 61.5594 24.0311 62.8897C25.3078 64.2329 25.9529 65.8702 25.9529 67.802C25.9534 69.7587 25.3078 71.3835 24.0311 72.7009V72.7009ZM53.4017 54.5738V53.4735C51.5869 52.3732 50.0007 50.9917 48.7371 49.2005C46.6539 45.4009 46.1023 41.6143 48.8983 37.8147C54.1137 32.2114 57.7563 34.3862 61.1704 37.6612C63.4158 40.7186 63.5239 43.7761 62.6757 46.8335C61.7357 49.8781 60.1223 52.1045 57.8644 53.473V54.5599H67.5022L69.0753 51.1318C68.9271 50.3515 68.5638 50.4538 67.8378 50.4791L66.6551 52.0399H63.8319C64.6688 50.8851 65.498 49.7252 66.3194 48.5602C67.4615 45.7457 67.9051 42.8035 66.8158 39.5543C64.5182 32.4677 55.1361 30.5741 49.1541 33.3758C45.4843 35.0771 42.8228 38.4674 42.9168 43.0344C43.0243 46.4629 44.7718 49.5845 47.2986 52.0404H45.1346L43.1449 50.5054C42.5801 50.3261 42.1636 50.5695 42.0561 51.1706L44.1126 54.5738H53.4017V54.5738ZM94.749 58.7186L94.7364 58.6928L85.9985 76.4876H88.7403L91.0395 71.8053H98.4454L100.744 76.4876H103.5L94.749 58.7186ZM94.749 69.6052H91.9268L94.7364 64.2702L94.749 64.296L97.5586 69.6057H94.749V69.6052V69.6052ZM53.3077 76.4876H64.2228V74.287H55.8486V68.1721H64.2228V65.972H55.8486V61.2257H64.2228V59.0638H53.3077V76.4876V76.4876ZM75.8095 69.477H82.3558C82.2076 70.9742 81.5494 72.2151 80.3792 73.1996C79.2231 74.1718 77.7982 74.6586 76.1055 74.6586C74.0751 74.6586 72.4216 73.9929 71.1449 72.6756C69.8546 71.3453 69.2095 69.7204 69.2095 67.802C69.2095 65.8826 69.8541 64.2453 71.1449 62.9021C72.4216 61.5589 74.0751 60.8938 76.1055 60.8938C77.1671 60.8938 78.0811 61.0607 78.8608 61.4054C79.6401 61.7378 80.3787 62.2499 81.0786 62.928L83.0009 61.4695C82.0187 60.5615 80.9842 59.87 79.8823 59.3966C78.7664 58.9237 77.5289 58.6932 76.1316 58.6932C73.3621 58.6932 71.0373 59.6147 69.1818 61.4695C67.4077 63.2479 66.5204 65.3456 66.5204 67.7762C66.5204 69.9251 67.2193 71.8569 68.6312 73.5841C70.4053 75.7717 72.9185 76.8596 76.1316 76.8596C79.2904 76.8596 81.669 75.7464 83.2687 73.5076C84.5188 71.7809 85.1373 69.7085 85.1373 67.2774H76.7235L75.8095 69.477V69.477Z" fill="black"/>
</svg>
