<svg width="113" height="109" viewBox="0 0 113 109" fill="none" xmlns="http://www.w3.org/2000/svg">
<g clip-path="url(#clip0_253_21782)">
<path d="M62.9646 52.5626C62.9384 52.5855 62.9142 52.6147 62.8936 52.6447C62.9209 52.6199 62.9475 52.5981 62.9757 52.5753L62.9646 52.5626Z" fill="black"/>
<path d="M65.29 50.4009L66.6373 48.9587L66.1763 49.4497L66.1897 49.3878L65.7821 49.8191L64.436 51.257L65.6972 52.3952L65.9257 50.9775L66.5535 51.5415L65.29 50.4009Z" fill="black"/>
<path d="M65.29 50.4009L66.5535 51.5416L67.0374 48.5317L66.6373 48.9588L65.29 50.4009Z" fill="black"/>
<path d="M65.9257 55.3846C64.5646 56.5142 63.0132 57.2506 60.9633 57.7475C60.5153 57.8505 60.0763 57.9255 59.6467 57.9634C56.3932 58.2843 53.6636 56.7853 52.6279 54.3541C52.4989 54.0596 52.3994 53.7616 52.3242 53.4435C51.8451 51.3959 52.2542 49.5662 53.2624 48.1319C53.3623 47.993 53.4674 47.86 53.5775 47.7246C53.526 47.7688 53.4732 47.8067 53.4304 47.8481C53.0429 48.1943 52.6999 48.5736 52.4084 48.988C51.399 50.4223 50.9899 52.2532 51.4734 54.2976C51.5473 54.6157 51.6453 54.9181 51.7715 55.2058C52.8077 57.6425 55.538 59.1408 58.7888 58.8222C59.2219 58.7804 59.6593 58.7086 60.1078 58.6C62.16 58.1031 63.7102 57.3698 65.0713 56.2402C65.4037 55.9659 65.7243 55.6668 66.0354 55.3396L66.0067 55.312C65.9756 55.3388 65.9524 55.3621 65.9257 55.3846Z" fill="black"/>
<path d="M42.9967 49.1949L46.6318 44.0695L46.4843 43.933L42.9771 48.876L42.9967 49.1949Z" fill="black"/>
<path d="M67.0374 48.5317L66.5535 51.5416L65.9257 50.9776L65.6972 52.3953L64.436 51.257L65.7821 49.8192L66.1897 49.3878L66.1763 49.4498L66.6373 48.9588L67.0374 48.5317Z" fill="black"/>
<path d="M23.9023 51.5471C23.5486 49.6431 21.0673 48.5937 18.6072 49.9399L19.2413 52.119L20.2389 55.3392L20.694 56.8058C22.5397 55.615 24.3948 54.1843 23.9023 51.5471ZM21.4587 54.4748C21.19 53.5951 20.6008 51.6955 20.6008 51.6955C20.6035 51.7041 20.4847 51.2889 20.3439 50.8137C20.8655 50.7202 21.3666 50.7581 21.7789 50.957C22.0094 51.0671 22.4146 51.3241 22.5031 51.8111C22.7068 52.9059 22.339 53.6874 21.4587 54.4748Z" fill="black"/>
<path d="M61.1285 48.5262C59.7533 47.2604 57.6157 47.3587 56.3613 48.7373C55.0994 50.1136 55.1985 52.2595 56.5757 53.5201C56.6878 53.6286 56.8089 53.7174 56.9309 53.8046L61.3669 48.7642C61.2886 48.6821 61.2099 48.6004 61.1285 48.5262ZM56.9399 52.0716C56.5061 51.2724 56.5938 50.2576 57.2424 49.5464C57.8663 48.8644 58.8222 48.6702 59.6373 48.9856L56.9399 52.0716Z" fill="black"/>
<path d="M67.0557 47.9729L64.5991 50.3477L66.933 52.4506L67.0557 47.9729Z" fill="black"/>
<path d="M89.8348 53.0611C89.8722 53.2107 89.8915 53.3587 89.8868 53.5162C89.8459 54.4579 88.9635 55.1849 87.9117 55.1356C86.8606 55.0993 86.0349 54.2989 86.0762 53.3595C86.1116 52.479 86.8936 51.782 87.8594 51.7374C87.676 51.6959 87.4845 51.6742 87.2847 51.6671C85.5251 51.591 84.087 52.8413 84.0264 54.3979C83.9587 56.0627 85.2887 57.42 87.0203 57.4954C88.7822 57.566 90.2196 56.3113 90.2896 54.6545C90.31 54.0802 90.1409 53.5296 89.8348 53.0611Z" fill="black"/>
<path d="M36.457 54.9623C36.457 55.908 35.5999 56.6658 34.55 56.6658C33.4973 56.6658 32.6433 55.9076 32.6433 54.9623C32.6433 54.081 33.3947 53.3544 34.3576 53.2699C34.1731 53.2364 33.9812 53.217 33.7829 53.217C32.0238 53.217 30.636 54.5262 30.636 56.0852C30.636 57.7488 32.0242 59.0536 33.7546 59.0536C35.5153 59.0536 36.9019 57.748 36.9019 56.0852C36.9019 55.5093 36.7123 54.9667 36.3862 54.5199C36.4303 54.6545 36.457 54.8037 36.457 54.9623Z" fill="black"/>
<path d="M100.779 45.411L99.9973 48.6414L99.2759 45.0645L89.6152 42.9308L89.6829 48.3206L91.1387 48.6482L91.0337 49.6203C91.0148 49.6128 91.003 49.6013 90.9928 49.593C89.188 48.6375 86.9505 48.5396 84.8449 49.3377C84.1384 49.6088 83.4826 49.9652 82.8879 50.3986L81.4304 41.1678H75.0056L74.8286 42.2291H68.0662L67.294 46.9743L66.7331 46.2793C65.0943 44.2593 62.7188 43.1467 60.0872 43.0914L65.8287 39.9952L61.8251 34.0004L54.5914 42.3633L55.84 43.8907C54.7091 44.3544 53.7209 44.9938 52.9023 45.7662L46.7001 40.245L44.5315 44.4152L44.6149 40.4076L34.918 43.5157L35.1666 48.7429L36.8164 48.3135L37.0603 50.9626C35.1753 50.1132 32.9095 50.1341 30.8081 51.0249C30.1854 51.2973 29.6048 51.6319 29.0698 52.0211C29.4333 50.4073 29.3472 48.8163 28.7343 47.3974C28.0105 45.7208 26.7368 44.3351 25.1751 43.4609C24.0804 42.7291 22.7756 42.2733 21.4102 42.1182C18.0548 41.5297 14.0256 42.134 10.06 43.8291C8.60222 44.4531 7.24235 45.1612 6.01583 45.945L4.46558 46.9313L5.40179 48.5175L8.30719 53.4443C8.30719 53.4443 9.1962 54.954 9.2021 54.9532L10.7732 54.1784L10.9923 54.0774L18.2118 70.2439L18.908 71.7978L20.52 71.2768L24.4262 70.0213L26.1381 69.4755L25.6865 67.727L23.6119 59.7367C24.2086 59.2935 24.7656 58.8234 25.2798 58.3313C25.1637 59.286 25.2247 60.2526 25.4867 61.1777C26.0291 63.1148 27.2934 64.645 29.0478 65.4927C30.9427 66.4064 33.2545 66.4088 35.3932 65.4987C36.4659 65.042 37.4198 64.3758 38.2282 63.5829L38.5228 66.7652L45.3635 65.7544L45.3528 59.6002L59.6466 66.6882V59.8251C60.2201 59.777 60.8054 59.6862 61.3939 59.5414C62.9682 59.1597 64.3155 58.6363 65.5125 57.9168L64.9122 61.6028L72.619 62.8196L73.0419 60.0371L75.0548 63.768L76.2852 61.3893L76.7348 65.295L85.4727 66.8406L85.0093 63.8911C86.2055 64.0269 87.4662 63.8659 88.6841 63.4049C88.9724 63.2979 89.2572 63.1677 89.5298 63.028L89.1817 66.1661L94.9972 66.9894L95.0405 69.3823L101.105 71.2922L109 47.416L100.779 45.411ZM66.6371 48.9592L67.0379 48.5317L66.5537 51.542L65.2906 50.4005L66.6371 48.9592ZM61.5163 36.6625L63.6334 39.548L57.5806 42.5586L57.1625 41.9212L61.5163 36.6625ZM21.4366 58.9134L23.8514 68.2101L19.943 69.4628L11.9226 51.4914C11.4864 51.7215 10.6808 52.1075 9.94084 52.4714L7.03662 47.549C8.19154 46.8089 9.45818 46.153 10.8055 45.5819C14.5865 43.9684 18.1941 43.4869 21.0794 43.9984C22.1002 44.1137 23.1808 44.4156 24.1272 45.0459C25.4257 45.7796 26.419 46.8239 26.9917 48.154C28.3885 51.3928 26.0551 56.0536 21.4366 58.9134ZM39.4059 57.2589C39.3611 58.6431 38.8544 60.03 38.0063 61.2034C37.1995 62.3381 36.0726 63.2746 34.7465 63.8473C31.3557 65.2887 27.9649 63.8473 27.059 60.6173C26.1814 57.4941 28.2233 53.7762 31.5087 52.3562C33.6069 51.4674 35.7122 51.6781 37.2204 52.7063C38.1519 53.3401 38.8623 54.2933 39.1939 55.4876C39.2356 55.6143 39.2631 55.7473 39.2911 55.8775C39.3859 56.3326 39.424 56.7991 39.4059 57.2589ZM57.8552 63.8315L43.6724 56.7143L43.6976 64.1714L40.0286 64.6734L39.7729 61.5996C40.9058 59.6507 41.3201 57.354 40.7288 55.248C40.4043 54.0904 39.8048 53.0856 38.9901 52.2804L38.4638 46.0133L36.8164 46.4419L36.7436 44.8572L42.6355 43.097L42.9966 49.194L47.337 43.0753L51.5802 47.1298L45.6463 53.4021L51.2211 55.6147C51.8438 56.7987 52.7938 57.8048 53.9857 58.546C55.1378 59.2595 56.458 59.6815 57.8544 59.82L57.8552 63.8315ZM50.491 53.5201L48.5183 52.7564L50.3573 50.963C50.2786 51.7863 50.3191 52.6471 50.491 53.5201ZM65.9255 55.3846C64.5645 56.5141 63.013 57.2506 60.9632 57.7475C60.5151 57.8505 60.0761 57.9255 59.6466 57.9634C56.3931 58.2843 53.6635 56.7853 52.6278 54.3541C52.4987 54.0596 52.3992 53.7616 52.3241 53.4435C51.845 51.3959 52.2541 49.5658 53.2623 48.1319C53.5526 47.7136 53.8972 47.3323 54.2842 46.9889C55.2338 46.1388 56.4462 45.5207 57.8245 45.1884C60.9239 44.4385 63.6534 45.3877 65.3268 47.4479L59.4208 53.7553C59.8213 53.8311 60.4581 53.7257 60.9282 53.6129C62.3349 53.2687 63.122 52.5196 63.8155 51.7034L66.1757 53.8339L66.8908 54.4819C66.5809 54.8036 66.2551 55.1071 65.9255 55.3846ZM78.4554 63.8019L77.1707 55.263L75.3537 59.9735L72.6332 54.0861H72.6025L71.5274 60.9042L66.9931 60.1125L67.6308 56.3077C67.8019 56.1463 67.9702 55.9845 68.1358 55.8136L69.6054 54.2953L68.1771 53.0118L69.6947 43.9511H74.2696L75.4147 50.2233L76.6978 42.9545H79.9703L81.3282 51.8103C79.6001 53.7853 78.7607 56.4403 79.3381 58.8692C79.7846 60.7522 80.9379 62.2686 82.5913 63.1543C82.7576 63.2383 82.9299 63.3216 83.1077 63.3934L83.2808 64.5416L78.4554 63.8019ZM89.7548 61.0198C89.2549 61.377 88.7046 61.6805 88.1129 61.8996C86.945 62.346 85.7834 62.4387 84.7485 62.2323C84.027 62.0894 83.3693 61.8072 82.797 61.3987C81.8867 60.738 81.2164 59.7624 80.921 58.5373C80.5764 57.0655 80.8939 55.4939 81.683 54.1173C82.0763 53.4443 82.581 52.812 83.1782 52.267C83.8441 51.6679 84.6163 51.1773 85.4754 50.8457C87.4749 50.0974 89.4468 50.3555 90.835 51.3569C91.3456 51.72 91.7693 52.1821 92.1032 52.7193C92.3566 53.1436 92.5533 53.6113 92.6724 54.122C93.0977 55.8894 92.5914 57.7823 91.4802 59.3073C91.0042 59.9573 90.424 60.5415 89.7548 61.0198ZM99.9647 69.0682L96.6116 68.0661L96.3193 55.6628L94.633 65.2311L90.9751 64.6454L91.2371 61.8905C93.6256 59.8654 94.8918 56.6708 94.1979 53.7759C93.8931 52.4939 93.2361 51.3778 92.3102 50.5292L92.6189 47.2802L91.2359 46.9108L91.3283 45.1762L97.6304 46.447L99.7495 56.5295L101.923 47.4902L106.717 48.553L99.9647 69.0682Z" fill="black"/>
<path d="M102.72 70.2437V69.3073H102.372V69.182H103.21V69.3073H102.86V70.2437H102.72Z" fill="black"/>
<path d="M103.35 70.2437V69.182H103.561L103.812 69.9337C103.835 70.0037 103.851 70.0561 103.862 70.0908C103.874 70.0522 103.893 69.9955 103.918 69.9207L104.172 69.182H104.36V70.2437H104.225V69.3551L103.918 70.2437H103.791L103.485 69.3399V70.2437H103.35Z" fill="black"/>
</g>
<defs>
<clipPath id="clip0_253_21782">
<rect width="106" height="39" fill="white" transform="translate(3 34)"/>
</clipPath>
</defs>
</svg>
