<svg width="114" height="109" viewBox="0 0 114 109" fill="none" xmlns="http://www.w3.org/2000/svg">
<path d="M56.6833 30.2583C53.4769 30.2718 50.2846 30.6482 47.1771 31.3606C45.6516 31.7236 44.1402 32.2075 42.6712 32.7587L42.5865 32.799C42.5865 32.799 42.7701 43.2172 42.8972 48.3793C42.9396 49.8983 43.2363 51.3905 43.773 52.8423C44.3945 54.4689 45.2138 56.0148 46.2166 57.4532C47.6998 59.5369 49.6066 61.3113 51.8243 62.669C52.813 63.2336 53.8441 63.731 54.9035 64.1477C55.2566 64.2956 55.5674 64.43 55.8358 64.5107C56.1324 64.6317 56.429 64.7123 56.7256 64.7796C57.0364 64.7123 57.333 64.6182 57.6155 64.5241C57.9121 64.43 58.2087 64.2956 58.5619 64.1612C60.3416 63.5159 61.9943 62.5884 63.4491 61.4189C64.9181 60.2762 66.1894 58.9319 67.2487 57.4398C68.2657 55.9879 69.085 54.4555 69.6924 52.8289C70.2433 51.377 70.5257 49.8849 70.5681 48.3658C70.6952 43.1903 70.8789 32.7856 70.8789 32.7856L70.78 32.7318C67.3052 31.401 63.6186 30.5944 59.8755 30.3524C58.8161 30.2718 57.8556 30.2314 56.7821 30.2314H56.6833V30.2583ZM56.6833 30.7826H56.768C59.8473 30.8095 62.9124 31.1724 65.9069 31.8715C67.3759 32.2344 68.8166 32.6646 70.2433 33.2158L70.328 33.2561L70.2715 36.5227H70.2291C66.8815 35.2322 63.3503 34.4391 59.7484 34.1971C58.7596 34.103 57.7709 34.0627 56.7821 34.0358H56.6974C53.6181 34.0627 50.553 34.4391 47.5585 35.1381C46.0754 35.501 44.6205 35.9581 43.208 36.5093L43.1515 33.2158L43.2362 33.1889C46.5839 31.8984 50.1434 31.1187 53.7453 30.8767C54.7058 30.8095 55.6945 30.7692 56.6833 30.7826ZM77.3623 31.1052C75.5401 31.1052 74.057 32.5167 74.057 34.2509C74.057 35.985 75.5401 37.4099 77.3623 37.4099C79.1844 37.4099 80.6675 35.9984 80.6675 34.2643C80.6675 32.5302 79.1985 31.1052 77.3623 31.1052ZM55.6521 31.28C55.5815 31.2934 55.5109 31.3203 55.4544 31.3606C55.3979 31.3875 55.3696 31.4413 55.3555 31.4951V32.0059L55.3414 32.4898C55.3414 32.5436 55.3979 32.6108 55.4403 32.6377C55.4968 32.6915 55.5674 32.6915 55.6521 32.7049H56.3301L57.0364 32.7184L57.7426 32.7587C57.7991 32.7587 57.8274 32.7856 57.8415 32.8259V33.0948C57.8415 33.1485 57.8415 33.1889 57.8133 33.2426C57.7991 33.283 57.7568 33.2964 57.672 33.2964H57.0505L56.7115 33.283H55.8216L55.299 33.3099L55.2708 33.74L56.0053 33.7131L56.5703 33.6997H57.0223L57.4319 33.7131L57.7144 33.7266H58.0251C58.0958 33.7266 58.1805 33.6997 58.237 33.6594C58.2935 33.619 58.3218 33.5653 58.3359 33.4981V33.0141L58.35 32.5302C58.3359 32.4764 58.3076 32.4226 58.2653 32.3823C58.2229 32.342 58.1664 32.3285 58.0958 32.3151L57.446 32.2882H55.8781L55.8358 32.2613C55.8075 32.2344 55.7934 32.2075 55.7934 32.1807V32.0059C55.7934 31.9387 55.7934 31.858 55.8216 31.7908C55.8358 31.7639 55.8781 31.737 55.9487 31.737L57.5308 31.7505H57.7568L58.3076 31.7639V31.3338L57.5731 31.3069L55.6521 31.28ZM54.1408 31.3472C53.8724 31.3472 51.4287 31.5892 51.4287 31.5892V34.0627L51.7112 34.0358L51.9796 33.9954V33.2292L53.5051 33.0679C53.7029 33.0679 53.8865 33.162 53.9712 33.3367C54.0419 33.4846 54.0984 33.6459 54.1549 33.8207L54.7481 33.7669C54.734 33.6056 54.6916 33.4577 54.621 33.3233C54.5363 33.1485 54.395 32.9872 54.2396 32.8528C54.3809 32.7721 54.4798 32.6377 54.5221 32.4898C54.5363 32.1941 54.5221 31.9118 54.4939 31.6295C54.4798 31.4951 54.4091 31.3606 54.1408 31.3472ZM59.6212 31.3741C59.4941 31.3741 59.3529 31.4144 59.254 31.4951C59.1551 31.5623 59.0845 31.6698 59.0704 31.7908V33.5115L59.0845 33.6325C59.0986 33.6863 59.1269 33.7131 59.1551 33.74C59.1975 33.7938 59.254 33.8207 59.3387 33.8341H59.4518L59.48 33.8476H59.5083L60.6948 33.9686L61.9236 34.0895L62.1073 34.1299V33.6728L61.8954 33.6325L61.7259 33.619H61.6976L60.6806 33.4981L59.6636 33.3771C59.6495 33.3771 59.6213 33.3771 59.6071 33.3502L59.593 33.2964V31.979C59.593 31.9252 59.593 31.8849 59.6495 31.858C59.6919 31.8311 59.7343 31.8177 59.7766 31.8043C60.0026 31.8177 61.8954 32.0597 62.1779 32.1V31.6161L60.5394 31.4413L59.6212 31.3741ZM77.3481 31.5623C78.4216 31.5623 79.4669 32.1403 79.933 33.1351L79.9612 33.1889C80.2437 33.861 80.2437 34.6138 79.9612 35.286C79.6787 35.9312 79.1561 36.4286 78.4781 36.6975C77.7719 36.9798 76.9809 36.9798 76.2746 36.6975C75.5966 36.442 75.0599 35.9312 74.7915 35.286C74.509 34.6138 74.509 33.861 74.7915 33.1889C75.0599 32.5436 75.5966 32.0462 76.2746 31.7774C76.6278 31.6564 76.995 31.5757 77.3481 31.5623ZM62.6581 31.7639V31.8715C62.6581 32.0193 62.6581 32.221 62.6299 32.4495C62.6299 32.7587 62.6158 33.0679 62.6016 33.3771L62.5875 33.5787V33.8745L62.5734 34.1702L62.7005 34.1971L62.7711 34.224L62.8983 34.2374L63.096 34.2643L63.1101 34.0895V33.9417L63.1243 33.7669V33.283C63.1525 33.283 63.1949 33.283 63.2231 33.2964H63.2655L63.8729 33.4174L64.8051 33.5922L64.8758 33.619L64.9746 33.6459L65.0876 33.6728V34.1568L65.0735 34.3181V34.5063L65.0594 34.6004L65.2289 34.6407L65.3278 34.6676L65.4266 34.6945L65.5679 34.7348V34.4928C65.5961 34.1971 65.5961 33.8879 65.6103 33.5249V32.342L65.4125 32.2882L65.1441 32.2344V32.6108L65.1159 32.8528V33.2561H65.1018L64.9746 33.2292L64.8758 33.2023L64.8051 33.1889L64.7345 33.162L64.1412 33.041L63.5339 32.9335H63.4774L63.322 32.8931L63.1666 32.8662H63.1243V31.8311L62.9971 31.8043H62.9124L62.8135 31.7774L62.6581 31.7639ZM50.3694 31.7908L47.9681 32.2344C47.7845 32.2882 47.5868 32.4226 47.5868 32.6108V34.2643C47.5868 34.4391 47.8128 34.6676 47.9964 34.6273L50.3976 34.1836C50.6236 34.1299 50.779 33.9417 50.8073 33.7266V32.0597C50.7649 31.8715 50.5812 31.7639 50.3694 31.7908C50.3835 31.7908 50.3835 31.7908 50.3694 31.7908ZM53.7311 31.8715C53.8018 31.8715 53.8583 31.8715 53.9148 31.9252C53.9571 31.9656 53.9712 31.9925 53.9712 32.0462V32.3285C53.9712 32.4092 53.943 32.4898 53.8865 32.5436C53.83 32.5974 53.7453 32.6377 53.6605 32.6377L52.813 32.7049L51.9655 32.7721V32.0193L53.7311 31.8715ZM49.9598 32.2613C50.1858 32.2344 50.2564 32.3554 50.2564 32.5033V33.5653C50.2705 33.6997 50.1716 33.8207 50.0304 33.861L48.3212 34.1702C48.1517 34.2105 48.0529 34.0895 48.0529 33.9417V32.8931C48.0529 32.678 48.1518 32.5839 48.4201 32.5302C48.406 32.5302 49.9598 32.2613 49.9598 32.2613ZM77.4329 32.3554H76.0628V36.2807H76.5712V34.5197H77.3623L78.1674 36.2807H78.7183L77.8708 34.4525C78.125 34.3987 78.3792 34.2777 78.5487 34.0895C78.7041 33.9148 78.803 33.6997 78.803 33.4577C78.803 33.3233 78.7748 33.1889 78.7465 33.0679C78.7041 32.9335 78.6335 32.8125 78.5346 32.7049C78.4216 32.5839 78.2804 32.5033 78.1109 32.4361C77.899 32.3823 77.673 32.3554 77.4329 32.3554ZM66.373 32.4764L66.3448 33.9282L66.3165 34.923L67.729 35.3263C68.181 35.4742 68.6895 35.622 69.198 35.7968L69.2545 35.8102L69.424 35.864C69.4523 35.6892 69.4523 35.5548 69.4523 35.3801L69.311 35.3263H69.2828L69.2545 35.3128C69.0003 35.2187 68.7036 35.1381 68.4353 35.044L67.5736 34.7751L67.39 34.7214L67.1923 34.6676L66.9804 34.6138L66.8674 34.5735V34.3315L66.8815 34.0895L67.164 34.1568L68.2093 34.4525L69.198 34.7751L69.2969 34.802L69.4664 34.8558V34.345L69.311 34.2912L69.2404 34.2777C68.633 34.0627 68.0256 33.8745 67.4041 33.7131L67.2629 33.6728L67.1075 33.6325L67.0369 33.6056L66.9098 33.5653V33.0679L67.0934 33.1217L67.3194 33.1754L67.5171 33.2292H67.5312C68.0821 33.3771 68.633 33.5384 69.1698 33.7266L69.2969 33.7804L69.4805 33.8476V33.404L69.3534 33.3502L69.2404 33.3099H69.2262C68.2799 33.0141 67.3335 32.7184 66.373 32.4764ZM46.7251 32.5705H46.5556C45.5669 32.8662 44.5922 33.1754 43.6176 33.5249L43.6459 34.7617V35.9178L44.3239 35.7027V34.8558L46.8523 34.103C46.9088 34.0895 46.9511 34.0492 46.9794 34.0089C47.0217 33.982 47.0359 33.9282 47.05 33.8879C47.05 33.8745 47.0641 33.8476 47.0641 33.8341L47.0359 32.8528C47.0218 32.7587 46.9653 32.6646 46.8664 32.6108C46.824 32.5839 46.7816 32.5705 46.7251 32.5705ZM76.5712 32.7856H77.334C77.56 32.7856 77.7719 32.8259 77.9696 32.9335C78.1533 33.0544 78.238 33.2561 78.2239 33.4577C78.2239 33.5518 78.2098 33.6325 78.1815 33.7266C78.1533 33.8072 78.1109 33.8745 78.0403 33.9148C77.9555 33.982 77.8425 34.0223 77.7295 34.0492C77.56 34.103 77.4046 34.103 77.221 34.103H76.543L76.5712 32.7856ZM46.2308 33.0813H46.259C46.3155 33.0813 46.3579 33.0948 46.3861 33.1351C46.4285 33.1754 46.4426 33.2023 46.4426 33.2561L46.4709 33.6056C46.4568 33.6728 46.4285 33.7266 46.3861 33.7669C46.3438 33.8072 46.2873 33.8341 46.2308 33.8476L44.2815 34.4525L44.2674 33.7266C44.2674 33.7266 45.0301 33.4308 45.3409 33.3233C45.6516 33.2292 46.2308 33.0813 46.2308 33.0813ZM56.3866 34.5063V41.147H51.9231C51.8666 41.147 51.8949 41.1202 51.9514 41.0798C52.2621 40.8513 52.6294 40.7034 53.0249 40.6362C53.0673 40.6362 53.0814 40.6228 53.0249 40.569C52.6435 40.206 52.1068 40.0851 51.6124 40.2598C51.1745 40.4077 50.8214 40.7169 50.666 41.1336C50.666 41.1739 50.6378 41.1874 50.6095 41.1874L49.8891 41.2143C49.8468 41.2143 49.8326 41.1605 49.8326 41.1336C49.8891 40.8379 50.0869 40.5959 50.3553 40.448C50.5954 40.2867 50.8637 40.206 51.1462 40.1792H51.1604C51.1886 40.1657 51.1886 40.1254 51.1745 40.0985C51.1321 40.0447 51.0756 40.0044 51.005 39.9641C50.779 39.8431 50.5106 39.8028 50.2423 39.8431C49.4795 39.9237 48.8721 40.5018 48.8156 41.2411C48.8015 41.3218 48.8156 41.3487 48.745 41.3756C48.5614 41.4293 48.2506 41.4697 48.0811 41.4966C48.0529 41.51 48.0105 41.4428 48.0246 41.4159C48.0811 41.1336 48.2082 40.8916 48.3919 40.6631C48.519 40.4883 48.7026 40.3539 48.9004 40.2464C48.9569 40.2329 48.971 40.1926 48.9569 40.1657C48.5755 39.8431 47.7845 40.1792 47.4596 40.5152C47.163 40.8782 47.0217 41.3621 47.05 41.8192V41.8864L46.4426 42.088L46.4144 42.0343C46.3579 41.6848 46.4426 41.3487 46.6404 41.0529C46.7251 40.9051 46.8523 40.7841 47.0076 40.69V40.6362C46.824 40.4211 46.146 40.569 45.9341 40.7572C45.4539 41.2143 45.4963 41.6444 45.468 42.3435C45.468 42.3838 45.4115 42.5048 45.3833 42.5182C45.2985 42.572 45.1996 42.6123 45.1008 42.6258H45.0584L45.0019 42.5048C44.8324 42.2359 44.4793 42.1418 44.1968 42.3031C44.1685 42.3031 44.1544 42.33 44.1403 42.3435C43.9143 42.5317 43.886 42.8543 44.0837 43.0694C44.112 43.0963 44.1261 43.1231 44.0837 43.1231C43.7447 43.2172 43.5611 43.5533 43.66 43.8759C43.66 43.8894 43.66 43.8894 43.6741 43.9028C43.7448 44.0776 43.9284 44.1986 44.1261 44.1986C44.3239 44.1986 44.5216 44.1448 44.677 44.0372C44.7053 44.0104 44.7335 44.0238 44.7618 44.0372C44.9313 44.3061 45.2985 44.3868 45.5528 44.2254C45.807 44.0641 45.9059 43.8222 45.7364 43.4189C45.7223 43.392 45.7646 43.3651 45.7929 43.3382C47.2336 42.5451 48.8721 42.1149 50.5389 42.0746C50.779 42.1015 51.005 42.1418 51.231 42.2359H51.2593V43.5936L51.2169 43.634C50.9061 43.8087 50.666 44.091 50.553 44.4271C50.553 44.454 50.553 44.454 50.4965 44.454L49.6066 44.5481C49.5784 44.5481 49.5501 44.5077 49.5501 44.4943C49.762 43.97 50.1434 43.4995 50.6519 43.1904C50.666 43.1635 50.666 43.1231 50.6519 43.0963C50.5812 43.029 50.4965 42.9753 50.3976 42.9484C49.8891 42.908 49.3806 43.1097 49.0558 43.4727C48.745 43.8356 48.5896 44.2658 48.5896 44.7228C48.5896 44.7632 48.5896 44.8035 48.5473 44.8169L47.9681 44.9782C47.9399 44.9782 47.9116 44.9514 47.9116 44.9245C47.8128 44.333 48.1094 43.7415 48.6461 43.4458C48.7168 43.392 48.5896 43.2979 48.4908 43.2979C47.9116 43.271 47.3608 43.5667 47.0924 44.0507C46.9653 44.4136 46.9511 44.8169 47.05 45.1933C47.05 45.2337 47.0782 45.2874 47.05 45.2874L46.5415 45.4487C46.5133 45.4622 46.485 45.4487 46.485 45.395C46.4144 45.1664 46.4003 44.9245 46.4568 44.6959C46.5133 44.4271 46.6545 44.1851 46.8664 43.9969V43.9432C46.6828 43.8625 46.4709 43.8491 46.2873 43.9028C45.9765 43.9835 45.7223 44.1717 45.581 44.4405C45.3268 44.8707 45.3974 45.2874 45.6516 45.8924C45.6516 45.9327 45.6799 45.973 45.6516 45.9999L45.4539 46.1478C45.4398 46.1612 45.4115 46.1478 45.3974 46.1209C45.3126 45.9999 45.2138 45.8251 45.0866 45.7714C44.8748 45.6773 44.6346 45.6907 44.4369 45.8251C44.2532 45.9865 44.1826 46.2284 44.2533 46.457L44.3945 46.672C44.4086 46.6855 44.3945 46.7258 44.3804 46.7258C44.2956 46.793 44.1685 46.8468 44.0837 46.9275C43.9284 47.1291 43.9284 47.398 44.0837 47.5996C44.225 47.8147 44.5075 47.8953 44.7618 47.7744C44.8889 47.7206 45.0019 47.6668 45.1149 47.5996C45.1573 47.5727 45.1714 47.5324 45.2137 47.5593C45.2985 47.6534 45.4115 47.734 45.5528 47.7744C45.7364 47.8281 45.9341 47.8012 46.0895 47.6937C46.2731 47.5996 46.3861 47.4114 46.3437 47.2098C46.3014 47.0753 46.2166 46.9409 46.1319 46.8199C46.0754 46.7661 46.0754 46.7661 46.1319 46.7393C46.9229 46.3091 47.7845 45.9596 48.6461 45.7042C49.4795 45.4622 50.3411 45.3546 51.2028 45.4084H51.2593V48.218H43.4057L43.1939 36.9529L43.2221 36.9394C46.5698 35.6489 50.1151 34.8692 53.717 34.6407C54.6351 34.56 55.4826 34.5197 56.3866 34.5063ZM51.8384 35.6892C51.4288 35.6624 51.0333 35.7833 50.6801 36.0119C50.2564 36.2942 49.988 37.1142 49.9174 37.4234C49.9174 37.4503 49.9033 37.4771 49.8609 37.4771C49.5078 37.5175 49.1687 37.5712 48.8156 37.6519C48.8439 37.3293 48.9851 37.0335 49.197 36.805C49.4371 36.5899 49.6914 36.4017 49.9598 36.227C49.9739 36.2135 49.9598 36.1732 49.9315 36.1597C49.5501 36.0119 49.1123 36.0119 48.7309 36.1732C48.18 36.4017 47.8128 36.8722 47.7139 37.4234C47.6715 37.6116 47.6574 37.8267 47.6574 38.0283L47.6009 38.0552L46.5274 38.3913L46.4709 38.3778C46.4568 38.0417 46.5415 37.7191 46.7251 37.4234C46.9088 37.1411 47.2478 36.9932 47.4879 36.7512C47.5161 36.7378 47.5444 36.6975 47.5161 36.684C46.8946 36.442 46.3155 36.684 45.8211 37.2217C45.4821 37.7057 45.3833 38.2837 45.5104 38.8483C45.5245 38.9021 45.5104 38.9424 45.4821 38.9693L45.1431 39.0903C45.1149 39.0903 45.0866 39.0903 45.0866 39.0634C44.9313 38.6332 44.4086 38.7139 44.1685 38.8483C43.9143 38.9962 43.8154 39.3054 43.9708 39.5473C43.9708 39.5877 43.9707 39.6011 43.9425 39.6146C43.6176 39.7759 43.4764 40.1388 43.6318 40.4615C43.7589 40.6765 44.0273 40.7572 44.2674 40.6631L44.6487 40.4883H44.6911C44.6911 40.4883 44.6911 40.5152 44.7194 40.5152C44.9171 40.7572 45.2844 40.811 45.5528 40.5959C45.7223 40.4749 45.7929 40.4615 45.8635 40.2464C45.8918 40.0851 45.8353 39.9372 45.7364 39.8162C45.7081 39.8162 45.7364 39.7624 45.7364 39.7624C47.7139 38.7945 49.875 38.2703 52.0926 38.2165C52.8836 38.2434 53.6605 38.5122 54.2679 39.0096C54.2961 39.0365 54.3244 39.0634 54.3668 39.0634C54.4091 39.05 54.4233 39.0096 54.4374 38.9827C54.5504 38.6332 54.4233 38.2434 54.1266 38.0014C53.8724 37.7594 53.5616 37.5847 53.2085 37.504C53.1803 37.504 53.1802 37.4503 53.1944 37.4503C53.3215 37.3158 53.5051 37.2083 53.7029 37.1411C53.9995 37.0873 54.2961 37.0739 54.621 37.0739C54.6351 37.0739 54.6775 37.047 54.6775 37.0201C54.5504 36.6975 54.2396 36.4689 53.8865 36.4555C53.5334 36.4152 53.1661 36.4689 52.8412 36.6034C52.5022 36.7781 52.2339 37.0604 52.0785 37.3965L52.0361 37.4234H51.118C51.1039 37.4234 51.0756 37.4234 51.0756 37.3965C51.118 37.1007 51.2451 36.8588 51.457 36.6437C51.7678 36.4017 52.1209 36.2001 52.4881 36.0925C52.5305 36.0791 52.5446 36.0388 52.5446 36.0119C52.4599 35.9043 52.361 35.8237 52.2339 35.7699C52.135 35.7161 51.9796 35.6892 51.8384 35.6892ZM56.8528 38.0014H70.2291C70.2291 38.9962 70.2009 40.0447 70.1726 41.1605H56.8669L56.8528 38.0014ZM51.6971 41.5907H61.7824C61.8106 41.5907 61.8106 41.6041 61.8106 41.6175V49.0111C61.8106 49.4009 61.74 49.7639 61.5987 50.1134C61.1891 51.1082 60.4123 51.9148 59.4235 52.3987C58.6325 52.8423 57.7144 53.0977 56.7962 53.1112C55.525 53.0977 54.3244 52.6541 53.378 51.8744C52.3469 51.1216 51.7395 49.979 51.7112 48.7422V41.631C51.683 41.631 51.6971 41.5907 51.6971 41.5907ZM70.1585 41.6175L70.102 44.3868H69.989H70.1161C70.1303 44.3868 70.1585 41.6175 70.1585 41.6175ZM58.5478 42.2225C58.4913 42.2359 58.4206 42.2762 58.4065 42.3435L58.0534 43.3785L58.0675 43.4592L58.1381 43.4995C58.1946 43.4995 58.2229 43.4995 58.237 43.4458L58.2935 43.271H58.802L58.8585 43.4458C58.8585 43.4861 58.915 43.4995 58.9433 43.4995C58.9715 43.4995 59.0139 43.4861 59.028 43.4592C59.0421 43.4323 59.0421 43.392 59.028 43.3651L58.6466 42.33C58.6466 42.2762 58.5901 42.2359 58.5478 42.2225ZM55.3837 42.2494C55.3272 42.2494 55.2849 42.2897 55.2849 42.33C55.2849 42.3703 55.3272 42.4107 55.3837 42.4107H55.5533V43.4054C55.5533 43.4592 55.6098 43.4861 55.6521 43.4861C55.6945 43.4861 55.7369 43.4458 55.7369 43.4054V42.4107H55.9205C55.9629 42.4107 56.0053 42.3703 56.0053 42.33C56.0053 42.2897 55.9629 42.2494 55.9205 42.2494H55.3837ZM56.2171 42.2494C56.1748 42.2494 56.1324 42.2897 56.1324 42.33C56.1324 42.3703 56.1748 42.4107 56.2171 42.4107H56.4008V43.4054C56.4008 43.4592 56.4573 43.4861 56.4996 43.4861C56.542 43.4861 56.5844 43.4458 56.5844 43.4054V42.4107H56.768C56.8104 42.4107 56.8528 42.3703 56.8528 42.33C56.8528 42.2897 56.8104 42.2494 56.768 42.2494H56.2171ZM57.4319 42.2494C57.2906 42.2359 57.1635 42.3166 57.107 42.4241C57.0223 42.5585 56.9799 42.7064 56.9799 42.8543C56.9799 43.0156 57.0223 43.15 57.0929 43.2979C57.1494 43.4189 57.2765 43.4995 57.4319 43.4995C57.5166 43.4995 57.5873 43.4726 57.6579 43.4458C57.7709 43.3651 57.8415 43.2441 57.8698 43.1097C57.8839 43.0425 57.898 42.9618 57.898 42.8946C57.898 42.8408 57.8698 42.7736 57.7709 42.7736H57.4884C57.4178 42.7736 57.4036 42.8005 57.4036 42.8274C57.4036 42.8812 57.4319 42.908 57.4743 42.908H57.6861V42.9618C57.7003 43.1231 57.5872 43.271 57.4319 43.3113C57.333 43.3113 57.2341 43.2441 57.2059 43.15C57.1494 43.0559 57.1353 42.9484 57.1353 42.8408C57.1353 42.7198 57.1776 42.6123 57.22 42.5182C57.2482 42.4376 57.333 42.3838 57.4178 42.3703C57.5025 42.3703 57.5731 42.4241 57.6155 42.4913C57.6296 42.5317 57.672 42.5451 57.7144 42.5317C57.7567 42.5317 57.7709 42.4779 57.7709 42.451C57.7426 42.3166 57.5872 42.2359 57.4319 42.2494ZM60.3699 42.2494C60.3134 42.2494 60.271 42.2897 60.271 42.33C60.271 42.3703 60.3134 42.4107 60.3699 42.4107H60.5535V43.4054C60.5535 43.4592 60.5959 43.4861 60.6383 43.4861C60.6806 43.4861 60.723 43.4458 60.723 43.4054V42.4107H60.9066C60.9631 42.4107 60.9914 42.3703 60.9914 42.33C60.9914 42.2897 60.949 42.2494 60.9066 42.2494H60.3699ZM52.8978 42.2494C52.7989 42.2359 52.6859 42.2628 52.6011 42.3166C52.5164 42.3703 52.4599 42.4644 52.4599 42.5585C52.4458 42.6526 52.4881 42.7602 52.5587 42.8408C52.6152 42.908 52.7141 42.9484 52.813 42.9484C52.9401 42.9484 53.039 42.9887 53.1096 43.0828C53.1379 43.1366 53.1096 43.2038 53.0673 43.2576C53.0108 43.3113 52.926 43.3382 52.8412 43.3248C52.7565 43.3248 52.6718 43.2845 52.6153 43.2307C52.587 43.1904 52.5305 43.1769 52.4881 43.1904C52.4316 43.2172 52.4316 43.2844 52.4316 43.3113C52.5164 43.4323 52.6576 43.513 52.8271 43.4995C52.9684 43.513 53.1096 43.4726 53.2085 43.3785C53.2791 43.3113 53.3074 43.2172 53.3074 43.1231C53.3215 43.029 53.265 42.9215 53.1803 42.8677C53.0531 42.8005 52.9119 42.7602 52.7706 42.7467C52.6859 42.7333 52.6294 42.6526 52.6435 42.572C52.6718 42.4644 52.7706 42.4107 52.8554 42.4241C52.9401 42.4241 53.039 42.451 53.0955 42.5182C53.152 42.572 53.2368 42.5182 53.2368 42.4644C53.2368 42.4107 53.152 42.2494 52.8978 42.2494ZM53.491 42.2494C53.4486 42.2494 53.4062 42.2897 53.4062 42.33V42.3435C53.4062 42.3838 53.4486 42.4241 53.491 42.4241H53.6746V43.4054C53.6746 43.4592 53.717 43.4995 53.7594 43.4995C53.8159 43.4995 53.8583 43.4458 53.8583 43.4054V42.4241H54.0419C54.0842 42.4241 54.1266 42.3838 54.1266 42.3435C54.1266 42.3031 54.0984 42.2494 54.056 42.2494H54.0419H53.491ZM59.3529 42.2494L59.2823 42.2897C59.2681 42.3031 59.254 42.33 59.254 42.3435V43.392C59.254 43.4458 59.2823 43.4726 59.3246 43.4861H59.3387C59.3952 43.4861 59.4376 43.4458 59.4376 43.4054V43.0694H59.6212L59.9037 43.4323C59.932 43.4727 59.9603 43.4861 59.9885 43.4861C60.045 43.4861 60.0733 43.4458 60.0733 43.4189C60.0733 43.392 60.0591 43.3517 60.0309 43.3382L59.8049 43.0425H59.8331C59.9037 43.0156 59.9603 42.9753 60.0168 42.9215C60.1015 42.8543 60.1439 42.7467 60.1298 42.6392C60.1298 42.5182 60.0591 42.4107 59.9603 42.3435C59.8614 42.2897 59.7625 42.2628 59.6495 42.2628C59.6354 42.2494 59.3529 42.2494 59.3529 42.2494ZM54.3668 42.2494C54.3244 42.2494 54.282 42.2897 54.282 42.33V42.3435V42.9753C54.282 43.0962 54.3103 43.2441 54.3668 43.3517C54.4515 43.4592 54.5786 43.513 54.7199 43.4995C54.847 43.5264 54.9741 43.4592 55.0589 43.3517C55.1154 43.2307 55.1578 43.1097 55.1436 42.9753V42.3435C55.1436 42.3031 55.1013 42.2628 55.0589 42.2628H55.0448C55.0024 42.2628 54.96 42.3031 54.96 42.3435V43.0156C54.96 43.0962 54.9459 43.1769 54.9035 43.2441C54.8611 43.2979 54.7905 43.3248 54.7199 43.3113C54.6493 43.3248 54.5786 43.2979 54.5362 43.2441C54.4939 43.1769 54.4656 43.0962 54.4798 43.0156V42.3435C54.4656 42.2897 54.4233 42.2494 54.3668 42.2494ZM59.4235 42.4241H59.6636C59.7343 42.4241 59.8049 42.4376 59.8473 42.4779C59.9038 42.5317 59.9179 42.572 59.9179 42.6392C59.9179 42.7871 59.7908 42.8946 59.6354 42.8946H59.4376L59.4235 42.4241ZM58.5336 42.4375L58.7596 43.1097H58.3359L58.5336 42.4375ZM56.768 43.9028C56.6409 43.9432 56.5138 43.97 56.4149 44.0372C56.3301 44.1045 56.2595 44.1851 56.203 44.2792C56.1889 44.2927 56.1748 44.3061 56.1465 44.3195L56.0759 44.333L55.8075 44.454C55.7227 44.4943 55.638 44.5481 55.5533 44.575C55.4826 44.6018 55.4261 44.6153 55.3555 44.6287C55.2001 44.6018 55.0306 44.6153 54.9741 44.7766C54.9741 44.8169 54.9882 44.8438 55.0306 44.8573C55.0589 44.8707 55.073 44.8841 55.1012 44.8976L55.186 44.9379C55.2143 44.9379 55.2284 44.9379 55.2425 44.9648L55.2566 44.9917V45.0051C55.2566 45.032 55.2143 45.0589 55.2001 45.0589C55.1154 45.0723 55.0448 45.0589 54.9741 45.0186H54.96C54.9317 44.9917 54.8894 44.9917 54.8611 45.0186C54.7058 45.1396 54.5504 45.2605 54.3809 45.3546L54.3244 45.4084L54.3103 45.4353V45.4756C54.3103 45.516 54.2679 45.5294 54.2396 45.5294C54.2114 45.5428 54.1831 45.5697 54.1831 45.5966V45.6638C54.1972 45.7176 54.2396 45.7445 54.3103 45.7445H54.3385L54.4656 45.6907H54.5221L54.5362 45.7042V45.7579C54.5221 45.7848 54.508 45.8117 54.4798 45.8251C54.4515 45.8655 54.4374 45.8924 54.4798 45.9192C54.5363 45.973 54.621 45.9596 54.6634 45.9058C54.6916 45.8789 54.7058 45.8386 54.7199 45.8117C54.734 45.7714 54.7623 45.7445 54.8046 45.7445C54.8753 45.7176 54.96 45.7042 55.0306 45.6907C55.0871 45.6907 55.1436 45.6907 55.186 45.731L55.2284 45.7714V45.7983C55.2143 45.852 55.2001 45.8924 55.1719 45.9461L55.1295 46.0671L55.0871 46.1747L55.0306 46.2284L54.8046 46.4032C54.6775 46.5107 54.5928 46.6183 54.4939 46.7661C54.4656 46.8065 54.4515 46.8468 54.4374 46.8871C54.4091 47.0081 54.3809 47.156 54.2537 47.0619C54.1266 47.0081 53.9995 46.914 53.8724 46.8199C53.83 46.793 53.7735 46.7527 53.7453 46.6989C53.6181 46.5242 53.4628 46.6989 53.3921 46.8199C53.2509 47.0484 53.0814 47.2635 52.8978 47.4652C52.8836 47.5189 52.8554 47.5593 52.8271 47.5996C52.7848 47.6534 52.7565 47.7206 52.7706 47.7878C52.7706 47.9088 52.7283 48.0163 52.6718 48.1104C52.6153 48.1642 52.587 48.2314 52.587 48.2986V48.4868C52.587 48.5406 52.6153 48.5675 52.6576 48.5675H52.7C52.7989 48.5272 52.8978 48.4734 52.9966 48.3927L53.039 48.3658C53.0673 48.339 53.0672 48.2986 53.0531 48.2717L53.039 48.2449L53.0108 48.218C52.9966 48.2045 52.9684 48.1911 52.9543 48.1642V48.0835L52.9825 48.0029C52.9825 47.976 52.9966 47.9357 53.0249 47.9222L53.1803 47.8012C53.2368 47.7475 53.265 47.6534 53.2368 47.5862V47.4921C53.2368 47.4517 53.2509 47.4383 53.2791 47.398L53.378 47.277C53.4204 47.2098 53.491 47.156 53.5616 47.1291C53.6746 47.1291 53.7735 47.156 53.8583 47.2232C53.9289 47.3173 53.9854 47.4383 54.0278 47.5593C54.056 47.6668 54.0984 47.7609 54.1549 47.855C54.2114 47.9088 54.282 47.9491 54.3526 47.9088L54.395 47.8819L54.4233 47.8685C54.4515 47.8685 54.4798 47.8685 54.4939 47.9088L54.621 48.0298C54.6775 48.0701 54.6351 48.097 54.5786 48.097H54.3809C54.169 48.1642 53.9289 48.2045 53.7029 48.2045H53.6605C53.6181 48.2045 53.604 48.2314 53.604 48.2583L53.5899 48.2852L53.5616 48.339C53.5475 48.3927 53.5475 48.4465 53.5616 48.5003C53.6464 48.796 53.6887 49.1052 53.6181 49.4144C53.5899 49.5354 53.6181 49.6564 53.7029 49.737L53.8018 49.7908L53.8583 49.8177C53.8865 49.858 53.9006 49.8849 53.9006 49.9387C53.9006 49.9924 53.943 50.0596 53.9712 50.1C54.0277 50.1672 54.0984 50.221 54.1831 50.2747H54.2114C54.2679 50.3016 54.3103 50.2747 54.3385 50.2344C54.3809 50.1403 54.4091 50.0328 54.395 49.9252C54.395 49.8714 54.3526 49.8311 54.2961 49.8177L54.2396 49.8311L54.1973 49.8446H54.1408C54.1125 49.8311 54.0984 49.8042 54.0843 49.7773C54.056 49.7101 54.056 49.6429 54.0701 49.5757V49.5354L54.0843 49.4413C54.0843 49.4144 54.0843 49.3875 54.056 49.3606C54.0278 49.3068 54.0278 49.2934 53.9854 49.28C53.9571 49.28 53.943 49.2665 53.9289 49.2396C53.9006 49.2127 53.9006 49.1993 53.9148 49.1859C53.943 49.038 53.943 48.8901 53.9289 48.7422C53.9289 48.6885 53.9289 48.6481 53.9571 48.6213C54.0701 48.5272 54.2538 48.5944 54.3526 48.6347C54.508 48.6885 54.6493 48.7154 54.7905 48.7422C55.0448 48.7691 55.299 48.7019 55.4968 48.5675C55.5109 48.554 55.5109 48.5406 55.5391 48.554L55.751 48.7019C55.9346 48.8229 56.1324 48.9036 56.3301 48.9708C56.6126 48.9977 56.881 48.9977 57.1776 48.9573C57.2341 48.9573 57.3189 48.9708 57.3754 48.9977L57.4036 49.038C57.4036 49.1455 57.3471 49.2262 57.3471 49.3337C57.3471 49.3875 57.3754 49.4413 57.4036 49.495L57.4601 49.6429L57.5025 49.6967C57.6579 49.8849 57.672 50.1672 57.5025 50.3554C57.4036 50.4495 57.2906 50.5436 57.1635 50.6242C57.0505 50.7049 56.9093 50.7587 56.768 50.7721C56.6691 50.7721 56.5844 50.8124 56.5137 50.8797C56.429 50.9603 56.3443 51.0275 56.2454 51.0679C56.203 51.0813 56.1606 51.1216 56.1606 51.162C56.1041 51.2695 56.0759 51.377 56.0476 51.498C56.0335 51.5518 56.09 51.5787 56.1465 51.5787C56.2454 51.5652 56.3443 51.5249 56.4573 51.498C56.5138 51.498 56.542 51.4308 56.5279 51.377L56.5137 51.3636L56.4714 51.2829V51.2157C56.4996 51.2023 56.5138 51.1754 56.542 51.162C56.5703 51.1351 56.6126 51.1351 56.6409 51.1351H56.6974C56.8386 51.1888 57.0081 51.1351 57.0646 51.0006C57.0929 50.9603 57.1211 50.92 57.1494 50.8931C57.4177 50.7318 57.7003 50.5974 58.011 50.4898C58.0393 50.4898 58.0675 50.4629 58.0675 50.436V50.0193C58.0675 49.9521 58.0958 49.8311 58.1946 49.8311C58.237 49.8311 58.2652 49.858 58.2794 49.8849C58.3782 50.0059 58.5054 50.0865 58.6608 50.1403L58.7879 50.1941C58.9009 50.2478 58.9715 50.3419 58.9856 50.4629C58.9997 50.5301 58.9856 50.5839 58.9433 50.6377L58.6466 51.041C58.6043 51.1082 58.5478 51.1754 58.463 51.2157C58.2653 51.3367 58.0957 51.4846 57.9262 51.6459L57.785 52.0626C57.7567 52.1433 57.8133 52.1702 57.8839 52.1433C58.011 52.1164 58.1099 52.0761 58.2087 52.0223L58.2653 51.982C58.2794 51.9685 58.2794 51.9416 58.2794 51.9282C58.2794 51.8879 58.2511 51.8475 58.2229 51.8207C58.1946 51.7803 58.1946 51.7266 58.2229 51.6862C58.237 51.6593 58.2652 51.6459 58.2794 51.6325L58.5336 51.5652C58.6325 51.5518 58.7314 51.5115 58.8161 51.4443C58.8303 51.4174 58.8444 51.4039 58.8585 51.377V51.3502C58.9574 51.041 59.1834 50.7452 59.4941 50.5974C59.5365 50.5839 59.5506 50.5436 59.5506 50.5033L59.5365 50.3823L59.3105 50.0462C59.2399 49.9521 59.1975 49.858 59.1834 49.7505C59.1834 49.6295 59.2116 49.5219 59.2681 49.4278L59.3246 49.3472C59.367 49.2665 59.4518 49.2262 59.5083 49.1455C59.5648 49.0783 59.6354 48.9977 59.6778 48.9036L59.8049 48.5809C59.8331 48.4868 59.7908 48.3927 59.7908 48.2986C59.7908 48.2583 59.819 48.2449 59.8331 48.2045C59.8755 48.1508 59.932 48.1104 60.0026 48.0835C60.0733 48.0701 60.1439 48.0701 60.2004 48.097L60.5253 48.218C60.5818 48.218 60.6524 48.218 60.7089 48.1911C60.7654 48.1776 60.836 48.1373 60.8925 48.097V48.0432H60.7371C60.6806 48.0298 60.6382 48.0029 60.61 47.9626C60.5817 47.9222 60.5535 47.8819 60.5535 47.8416L60.5959 47.7744C60.6806 47.7206 60.7513 47.6534 60.7936 47.5862C60.836 47.5055 60.8501 47.4248 60.8501 47.3442H60.8078C60.7513 47.398 60.7371 47.4652 60.6665 47.5055C60.61 47.5458 60.5394 47.5593 60.4829 47.5593C60.4405 47.5593 60.3981 47.5458 60.3558 47.5055C60.3275 47.4652 60.3134 47.4248 60.2993 47.3845C60.2851 47.3307 60.3558 47.3173 60.384 47.3039C60.4688 47.3039 60.5535 47.277 60.6383 47.2501C60.6948 47.2232 60.723 47.1829 60.7512 47.1291C60.7654 47.0888 60.7795 47.0484 60.7795 47.0081C60.7795 46.9812 60.7795 46.9678 60.7654 46.9812C60.7089 46.9812 60.6806 47.0216 60.6383 47.035C60.5676 47.0619 60.4829 47.0484 60.4123 47.0216C60.3416 46.9678 60.2851 46.9006 60.2428 46.8334V46.6855C60.3275 46.6855 60.3981 46.6048 60.4405 46.5107L60.4687 46.457L60.5253 46.3897C60.5394 46.336 60.5394 46.2822 60.5394 46.2284C60.5394 46.1881 60.5111 46.1343 60.4829 46.1074H60.4264C60.3981 46.1612 60.4264 46.2284 60.3699 46.2822C60.3275 46.336 60.2851 46.3897 60.2286 46.4301C60.1863 46.457 60.158 46.4838 60.1298 46.4838C60.0591 46.457 60.0168 46.4032 60.0026 46.336C60.0026 46.2822 60.0309 46.2015 60.0591 46.1478L60.2993 45.7848L60.497 45.5697C60.5394 45.516 60.5535 45.395 60.5111 45.3681C60.4546 45.3546 60.4264 45.4756 60.384 45.5025C60.1863 45.5697 60.0026 45.6638 59.8331 45.7848C59.7484 45.8789 59.706 45.9865 59.6636 46.1074C59.6354 46.1747 59.6495 46.2688 59.6212 46.336C59.6212 46.3629 59.5648 46.3897 59.5365 46.3763C59.48 46.3225 59.4376 46.2419 59.4094 46.1747C59.3952 46.1209 59.3952 46.0671 59.4094 45.9999C59.4235 45.973 59.4094 45.9596 59.3953 45.973C59.3105 46.0133 59.2681 46.0806 59.2258 46.1478C59.1975 46.2553 59.1975 46.3629 59.254 46.457C59.3388 46.6183 59.4376 46.7527 59.5648 46.8871C59.6495 47.0081 59.7484 47.156 59.819 47.277C59.8896 47.3711 59.9179 47.5055 59.9037 47.6399C59.8614 47.7609 59.8049 47.8819 59.706 47.9626C59.706 47.9626 59.6636 47.9894 59.6495 47.976C59.5506 47.8819 59.4376 47.8012 59.3246 47.7206C59.1834 47.6399 59.0421 47.5727 58.8868 47.5458C58.689 47.5189 58.4771 47.5189 58.2794 47.5458C58.0675 47.5458 57.8556 47.5862 57.6437 47.5727C57.4742 47.5862 57.3048 47.5727 57.1353 47.5189C57.0223 47.4652 56.9234 47.3845 56.8528 47.277C56.7963 47.1694 56.768 47.035 56.7962 46.914C56.7962 46.8065 56.8386 46.7124 56.881 46.6183C56.9234 46.5376 56.994 46.4704 57.0646 46.4301C57.1635 46.3763 57.2765 46.3629 57.3754 46.3897L57.5025 46.4704C57.5449 46.5107 57.5873 46.5511 57.6296 46.5914L57.672 46.5779C57.6861 46.4435 57.6579 46.3091 57.6155 46.1747C57.5731 46.0806 57.5025 45.9865 57.4319 45.8924C57.4319 45.8655 57.4884 45.8789 57.5025 45.8655C57.6155 45.8655 57.7285 45.8924 57.8133 45.9596C57.8698 45.9999 57.9404 46.0402 57.9828 46.1209L57.9969 46.1074C58.011 45.9461 57.9404 45.7848 57.8274 45.6638C57.785 45.5966 57.7144 45.5294 57.6437 45.4891C57.5872 45.4756 57.672 45.4353 57.7144 45.4353C57.7991 45.4219 57.898 45.4353 57.9686 45.4756L58.0534 45.5294L58.1099 45.5832C58.124 45.5832 58.1522 45.5563 58.1381 45.5428C58.124 45.4891 58.1099 45.4487 58.0816 45.4084C57.9545 45.2874 57.8133 45.1664 57.6579 45.0589L57.6014 45.0186C57.559 44.9648 57.5166 44.8976 57.5025 44.8438L57.446 44.7632V44.6691C57.5025 44.5884 57.5308 44.575 57.6296 44.5346C57.7003 44.5077 57.7709 44.4943 57.8415 44.4809L57.9121 44.5077C57.9121 44.5077 57.9263 44.4674 57.898 44.454C57.8133 44.4002 57.7003 44.3733 57.5873 44.3733C57.446 44.3464 57.3048 44.3599 57.1635 44.4002C57.0646 44.454 56.9516 44.4809 56.8528 44.4809C56.7821 44.4809 56.6974 44.4809 56.6409 44.4405C56.5985 44.4136 56.5561 44.3733 56.5561 44.3195C56.5561 44.2523 56.5703 44.1582 56.6126 44.091C56.6409 44.0372 56.6974 43.9969 56.7539 43.97C56.8104 43.97 56.8245 43.9431 56.8104 43.9163C56.8386 43.8759 56.7963 43.8894 56.768 43.9028ZM56.2171 44.6959C56.2878 44.6959 56.3443 44.7228 56.4008 44.7632C56.5703 44.8976 56.655 45.0858 56.6833 45.2874C56.7256 45.5563 56.7398 45.8386 56.6833 46.1074C56.6833 46.2015 56.6409 46.2822 56.5561 46.3225C56.5138 46.336 56.4714 46.3494 56.429 46.3494C56.3866 46.3494 56.3725 46.2822 56.3725 46.1747V45.4353C56.3442 45.274 56.3019 45.1127 56.2171 44.9514C56.2171 44.911 56.1889 44.8976 56.1606 44.8707L56.1041 44.8035C56.0759 44.7766 56.0335 44.7632 56.0053 44.7363L56.0194 44.6959C56.09 44.6825 56.1606 44.6691 56.2171 44.6959ZM62.2768 44.8304H70.102L70.0314 48.0835H62.2768V44.8304ZM62.2909 48.5137H70.0314C69.9608 49.9387 69.6783 51.3502 69.1839 52.6944C68.5906 54.2807 67.7996 55.7729 66.825 57.1844C65.4125 59.2008 63.5763 60.9215 61.4293 62.2523C60.4829 62.8035 59.4941 63.274 58.463 63.7041C58.1381 63.8386 57.8274 63.973 57.5731 64.0536C57.2765 64.1343 57.0223 64.2284 56.8528 64.2687V53.6086C57.0223 53.6086 57.1635 53.6086 57.333 53.5817L57.3895 53.7295C57.4601 53.8505 57.5731 53.9312 57.7144 53.9715C57.898 53.9984 58.0675 53.9312 58.1805 53.8102C58.35 53.9312 58.5619 53.985 58.7596 53.9043C58.915 53.864 59.028 53.7295 59.028 53.5817C59.0421 53.4741 59.028 53.38 58.9715 53.2859L58.915 53.2053C59.3246 53.0305 59.6919 52.8423 60.045 52.6003H60.0874C60.6383 52.4659 62.9124 51.6862 64.3108 51.6728C65.1724 51.6593 66.0199 51.8475 66.7685 52.2374C67.1781 52.4659 67.5454 52.7482 67.8561 53.0977L67.9126 53.0574C67.9974 52.8154 68.0539 52.5735 68.0398 52.3046C67.9974 51.9013 67.5736 51.6056 67.4465 51.4846C67.4465 51.4846 67.4465 51.4577 67.4889 51.4308C67.5313 51.3905 67.5878 51.3502 67.6443 51.3098C67.8985 51.1351 68.1951 51.0141 68.5059 51.0141C68.5483 51.0141 68.5341 50.9603 68.52 50.8931C68.4352 50.5436 67.8844 50.3151 67.3335 50.3823C66.9521 50.4495 66.6273 50.678 66.4154 50.9872C66.4013 51.0141 66.3447 51.041 66.3306 51.0141C66.147 50.9469 65.9634 50.8931 65.7798 50.8528C65.7233 50.8393 65.7515 50.7856 65.7515 50.7856C65.8645 50.5974 66.0058 50.4226 66.2035 50.3016C66.4154 50.1403 66.6837 50.0193 66.9662 49.979C66.9945 49.979 66.9945 49.9387 66.9662 49.9252C66.8674 49.7101 66.6555 49.5488 66.4154 49.495C66.0199 49.3741 65.5679 49.4413 65.243 49.6832C64.9323 49.9387 64.6921 50.2882 64.565 50.6511C64.5509 50.6915 64.5368 50.7049 64.5085 50.7049C64.3531 50.6646 63.9859 50.6915 63.9576 50.6646C63.9294 50.6646 63.9294 50.6108 63.9435 50.5974C64 50.3957 64.1271 50.2075 64.2684 50.0596C64.4238 49.8849 64.6074 49.737 64.8193 49.6564L64.8475 49.6295C64.8757 49.5891 64.8758 49.5354 64.8334 49.5085C64.1978 49.2127 63.435 49.3741 62.983 49.8983C62.7711 50.1941 62.6158 50.5436 62.531 50.8931C62.531 50.9065 62.5028 50.9469 62.4745 50.9469L61.7118 51.1216L61.5846 51.1485L61.5564 51.1216C62.0084 50.4092 62.2626 49.6026 62.2909 48.7557C62.2909 48.7691 62.2909 48.5137 62.2909 48.5137ZM51.8101 49.6832C51.8525 49.8446 51.9372 49.9924 51.9937 50.1537L51.8101 49.6832ZM52.6718 51.3905C53.6746 52.5869 55.1719 53.2859 56.768 53.3128C57.9969 53.2994 59.1834 52.8692 60.1156 52.103C59.1834 52.8558 57.9969 53.2725 56.768 53.2859C55.186 53.2725 53.6746 52.5735 52.6718 51.3905ZM44.0696 52.1433H52.9401L53.1237 52.2912C54.0419 53.044 55.2001 53.501 56.4008 53.5951V55.3292H45.4821C44.903 54.2941 44.4369 53.2322 44.0696 52.1433ZM62.5734 52.8289C62.3474 52.8558 62.1355 52.923 61.9378 53.044C61.6835 53.1918 61.4716 53.3935 61.3445 53.6489C61.1891 54.0118 61.1185 54.3748 61.0903 54.7512L61.0337 54.805L60.5253 54.926C60.5253 54.926 60.497 54.926 60.4829 54.8991C60.4264 54.5361 60.5111 54.1732 60.7089 53.864C60.7936 53.7161 60.9066 53.5817 61.0337 53.4741C61.062 53.4607 61.0761 53.4204 61.062 53.4069L61.0055 53.38C60.6806 53.3263 60.3275 53.38 60.0309 53.5548C59.6495 53.743 59.3953 54.1059 59.3529 54.5227C59.3105 54.805 59.3387 55.0873 59.4094 55.3696C59.4094 55.383 59.4094 55.4099 59.3811 55.4233L58.8303 55.6788H58.802C58.7455 55.4637 58.6043 55.2755 58.3924 55.1545C58.1664 55.0604 57.9262 55.0738 57.7144 55.1814C57.5731 55.262 57.4601 55.3696 57.4036 55.504C57.2906 55.746 57.3754 56.0148 57.5873 56.1493C57.5873 56.1627 57.6155 56.1896 57.5873 56.203C57.446 56.2568 57.446 56.2837 57.333 56.4316C57.2341 56.6466 57.2624 56.9021 57.4178 57.0768C57.6296 57.386 58.0675 57.4667 58.3783 57.265C58.4065 57.2516 58.4348 57.2247 58.463 57.1978C58.463 57.1978 58.4913 57.1978 58.5054 57.2247C58.5619 57.3053 58.6325 57.386 58.7173 57.4398C58.9291 57.5608 59.1975 57.5608 59.3953 57.4398C59.6213 57.3188 59.7484 57.0768 59.706 56.8348C59.706 56.7004 59.6495 56.566 59.5365 56.4719C59.5224 56.445 59.5365 56.4316 59.593 56.4047C60.5111 55.9073 61.514 55.5712 62.5734 55.4368C63.1101 55.3696 63.661 55.383 64.1978 55.4771C64.5368 55.5443 64.8758 55.7056 65.1441 55.9207C65.3701 56.0955 65.5679 56.2837 65.7656 56.4988C65.8221 56.4988 65.8928 56.4988 65.9493 56.4584C66.0623 56.2165 66.0764 55.9476 65.9634 55.7056C65.8363 55.383 65.6385 55.1007 65.3843 54.8587V54.8319C65.3843 54.7781 65.4125 54.7646 65.4549 54.7109C65.695 54.5092 65.9916 54.3479 66.3024 54.2941C66.3448 54.2941 66.3589 54.2538 66.3448 54.2269C66.1188 53.7968 65.582 53.6086 65.1159 53.7833C64.8193 53.9043 64.565 54.1194 64.4379 54.3882C64.4238 54.4151 64.3955 54.4555 64.3814 54.442L63.8729 54.3882C63.8164 54.3882 63.8305 54.3345 63.8446 54.3345C63.9011 54.1597 64 53.9984 64.1412 53.8774C64.3249 53.6758 64.565 53.5145 64.8193 53.4204C64.8475 53.4204 64.8475 53.3935 64.8475 53.38C64.678 53.1784 64.4096 53.0574 64.1412 53.044C63.8022 53.0305 63.4632 53.1515 63.2231 53.38C62.9265 53.6758 62.757 54.0522 62.7146 54.4555C62.6864 54.4823 62.6722 54.5092 62.6581 54.5092C62.531 54.5361 62.3756 54.5361 62.2344 54.5496C62.2061 54.5496 62.2061 54.5092 62.2061 54.4958C62.2061 54.2941 62.2626 54.0925 62.3615 53.9177C62.5451 53.5682 62.8418 53.2725 63.1949 53.0708C63.2514 53.0305 63.2514 52.9499 63.2373 52.9499C63.0395 52.8423 62.7994 52.802 62.5734 52.8289ZM60.9066 57.3994C60.7654 57.3994 60.6241 57.4398 60.5111 57.5204C60.1721 57.6817 59.9179 57.964 59.7908 58.3136C59.7343 58.5824 59.7343 58.8647 59.819 59.1336V59.1739L59.4941 59.3218H59.4518C59.254 58.9723 59.2964 58.5555 59.5789 58.2598C59.6071 58.2329 59.6213 58.206 59.5648 58.1926C59.2681 58.1522 58.9715 58.2598 58.7737 58.4749C58.5336 58.7437 58.463 59.1067 58.5901 59.4428C58.6184 59.5637 58.6608 59.6847 58.7455 59.8057C58.7455 59.8057 58.802 59.846 58.7596 59.8595L58.5478 60.0342H58.5054C58.4206 59.8595 58.2511 59.7385 58.0675 59.6847C57.898 59.6444 57.7285 59.6982 57.6014 59.8057C57.3895 60.0074 57.3754 60.33 57.5873 60.5451L57.6014 60.5585C57.6579 60.6123 57.7285 60.6526 57.8133 60.6795C57.8274 60.6795 57.8415 60.7064 57.8274 60.7198C57.7003 60.8005 57.6014 60.8946 57.5308 61.0156C57.446 61.2172 57.4884 61.4457 57.6579 61.607C57.785 61.7011 57.9404 61.7549 58.0958 61.728C58.3359 61.6608 58.5195 61.4861 58.6466 61.2844C58.6466 61.2844 58.6749 61.2575 58.689 61.2844C58.7879 61.4054 58.9291 61.4995 59.0986 61.5667C59.2681 61.6339 59.4518 61.5936 59.5789 61.4726C59.7625 61.3516 59.8331 61.1097 59.7484 60.8946C59.6778 60.7736 59.5789 60.6661 59.4518 60.5988C59.4235 60.572 59.4517 60.5451 59.48 60.5182C60.0874 60.0477 60.8219 59.7385 61.6129 59.6309C62.1355 59.5637 62.6722 59.6444 63.1525 59.8729C63.3361 59.967 63.5056 60.1014 63.661 60.2493C63.6751 60.2493 63.7316 60.2762 63.7458 60.2493C63.9859 60.0611 64 59.7116 63.8023 59.4831C63.7175 59.389 63.6186 59.3083 63.4915 59.2411L63.4774 59.2142C63.6328 58.8378 63.9576 58.5421 64.3814 58.448C64.4238 58.448 64.4096 58.4211 64.3814 58.3808C64.2119 57.9775 63.4491 57.964 63.096 58.1791C62.87 58.327 62.6864 58.5152 62.5593 58.7437C62.5593 58.7706 62.5451 58.7975 62.5169 58.7975L62.2061 58.7034V58.6631C62.418 58.2598 62.7994 57.964 63.2514 57.8565C63.2796 57.8431 63.2655 57.8162 63.2514 57.8027C63.096 57.4129 62.2626 57.4398 61.853 57.6952C61.4716 57.9372 61.1891 58.3001 61.0903 58.7303V58.7841C60.9631 58.8244 60.8643 58.8513 60.7371 58.8647C60.723 58.8647 60.7089 58.8513 60.7089 58.8244C60.6806 58.6362 60.7089 58.4345 60.8078 58.2732C60.9349 58.0581 61.1185 57.8565 61.3021 57.6683C61.3304 57.6414 61.3304 57.6011 61.3021 57.5876C61.175 57.4532 61.0479 57.4129 60.9066 57.3994ZM48.3495 59.2814H56.3725V64.215C56.2171 64.1612 56.0476 64.094 55.8499 64.0402C55.5815 63.9595 55.299 63.8117 54.9459 63.6772C53.2368 63.0454 51.6548 62.1582 50.2564 61.029C49.5784 60.4913 48.9428 59.9133 48.3495 59.2814ZM78.2239 70.6138V76.9588H79.6929V74.5794H88.6058V76.9588H90.0889V70.6138H88.6199V73.1948H79.707V70.6138H78.2239ZM23.2635 70.6138C22.4442 70.6138 21.7804 71.2456 21.7662 72.0253V75.5742C21.7662 76.3539 22.4442 76.9722 23.2635 76.9722H32.6284C33.4476 76.9722 34.0974 76.3404 34.0974 75.5742V72.0253C34.0974 71.2725 33.4617 70.6406 32.6566 70.6272L23.2635 70.6138ZM35.8771 70.6138V76.9588H37.332V75.2784H45.5104C46.3155 75.2784 46.9794 75.9237 46.9794 76.6899V76.9453H48.4625V76.9319C48.4625 76.0178 47.9116 75.1843 47.0359 74.781C47.8269 74.7542 48.4484 74.1358 48.4484 73.383V72.0118C48.4484 71.2321 47.7845 70.6138 46.9653 70.6138H35.8771ZM7.5 70.6272V76.9722H8.969V75.2919H18.574C19.3932 75.2919 20.0571 74.6601 20.0571 73.8938V72.0253C20.0571 71.2456 19.3791 70.6272 18.574 70.6272H7.52825H7.5ZM65.9493 70.6272C65.13 70.6272 64.452 71.259 64.452 72.0253V75.5742C64.452 76.3404 65.1017 76.9857 65.9069 76.9857H76.543V75.5876H66.1187C66.0199 75.5876 65.9351 75.5204 65.9351 75.4129V72.2135C65.9351 72.0925 66.0481 72.0253 66.1753 72.0253H76.543V70.6138L65.9493 70.6272ZM91.8121 70.6272V76.9722H104.821V75.7893H93.2953V74.4046H104.821V73.2082H93.2953V71.8236H104.821V70.6272H91.8121ZM51.5983 70.6272C50.7931 70.6541 50.1434 71.2725 50.1434 72.0521V72.9931C50.1434 73.7728 50.8214 74.4046 51.6406 74.4046H60.9914C61.1185 74.4046 61.2315 74.4987 61.2456 74.6197V75.5876C61.2456 75.7086 61.1326 75.7893 60.9914 75.7893H50.3553V76.9857H61.2456C62.0507 76.9857 62.7146 76.3404 62.7146 75.5742V74.6197C62.7146 73.8535 62.0366 73.2082 61.2315 73.2082H51.8666C51.7395 73.2217 51.6265 73.1276 51.6265 73.0066V72.0387C51.6265 71.9177 51.7395 71.8236 51.8666 71.8236H62.4745V70.6406L51.5983 70.6272ZM37.3461 72.0118H46.7251C46.8664 72.0253 46.9794 72.1328 46.9794 72.2538V73.6518C46.9794 73.7728 46.8805 73.8804 46.7534 73.8938H37.3461V72.0118ZM8.969 72.0118L18.3339 72.0253C18.461 72.0253 18.5881 72.1462 18.5881 72.2672V73.6518C18.5881 73.7728 18.4892 73.8804 18.3621 73.8938H8.99725V72.0118H8.969ZM23.5036 72.0253H32.4024C32.5295 72.0253 32.6566 72.1328 32.6566 72.2672V75.3456C32.6566 75.4801 32.5577 75.5742 32.4165 75.5876H23.4471C23.3482 75.5876 23.2635 75.507 23.2635 75.4129V72.2135C23.2776 72.0925 23.3906 72.0118 23.5036 72.0253Z" fill="black"/>
</svg>
