<svg width="114" height="109" viewBox="0 0 114 109" fill="none" xmlns="http://www.w3.org/2000/svg">
<path fill-rule="evenodd" clip-rule="evenodd" d="M69.6896 36.4617C69.2783 36.4617 68.8839 36.6171 68.5932 36.8939C68.3024 37.1706 68.139 37.546 68.139 37.9373C68.139 38.451 68.4033 38.9013 68.8212 39.1658L63.5628 49.9062L64.6613 35.604C65.06 35.5719 65.4303 35.3944 65.6947 35.1086C65.9592 34.8228 66.0974 34.4508 66.0805 34.0703C66.0636 33.6898 65.8929 33.3303 65.6041 33.0667C65.3152 32.8032 64.9306 32.6561 64.5304 32.656C64.1192 32.656 63.7248 32.8115 63.434 33.0882C63.1432 33.365 62.9799 33.7403 62.9799 34.1317C62.9799 34.7733 63.4098 35.3084 64.0114 35.5121L60.4028 49.4764L58.6176 34.0718C58.9456 33.9899 59.2357 33.8068 59.4425 33.5511C59.6493 33.2954 59.7612 32.9816 59.7604 32.6589C59.7604 32.2675 59.5971 31.8922 59.3063 31.6154C59.0155 31.3387 58.6211 31.1832 58.2099 31.1832C57.7986 31.1832 57.4042 31.3387 57.1134 31.6154C56.8227 31.8922 56.6593 32.2675 56.6593 32.6589C56.6593 33.3953 57.2302 33.9894 57.9717 34.1001L56.5329 49.108L52.3514 35.5557C52.6018 35.432 52.8116 35.2453 52.958 35.0159C53.1044 34.7865 53.1817 34.5232 53.1816 34.2548C53.1816 33.963 53.0907 33.6777 52.9203 33.435C52.7499 33.1923 52.5077 33.0032 52.2244 32.8915C51.9411 32.7798 51.6293 32.7506 51.3285 32.8075C51.0278 32.8645 50.7515 33.005 50.5346 33.2114C50.3178 33.4178 50.1701 33.6807 50.1103 33.967C50.0504 34.2532 50.0811 34.5499 50.1985 34.8196C50.3159 35.0892 50.5146 35.3197 50.7696 35.4818C51.0246 35.644 51.3244 35.7305 51.631 35.7305C51.6532 35.7305 51.6774 35.7286 51.699 35.7277L53.5013 49.9066L47.4284 39.5898C47.7282 39.366 47.931 39.045 47.998 38.688C48.065 38.331 47.9915 37.9631 47.7916 37.6544C47.5916 37.3457 47.2793 37.1178 46.9141 37.0143C46.5489 36.9108 46.1565 36.9389 45.8117 37.0932C45.4669 37.2476 45.1938 37.5173 45.0447 37.851C44.8956 38.1848 44.8808 38.559 45.0031 38.9025C45.1255 39.2459 45.3764 39.5344 45.708 39.713C46.0397 39.8916 46.4288 39.9477 46.8011 39.8706L51.8888 54.3864C53.0497 57.7623 63.368 57.8236 64.9155 54.3864L69.5103 39.3943C69.5743 39.402 69.6226 39.4125 69.6886 39.4125C70.0949 39.4057 70.4822 39.2473 70.767 38.9715C71.0519 38.6956 71.2116 38.3243 71.2117 37.9376C71.2118 37.5508 71.0524 37.1794 70.7677 36.9034C70.4831 36.6274 70.0959 36.4688 69.6896 36.4617V36.4617ZM58.2748 55.9387C55.6454 55.9387 53.5139 55.1846 53.5139 54.2542C53.5139 53.3237 55.6454 52.8868 58.2748 52.8868C60.9042 52.8868 62.7563 53.3237 62.7563 54.2542C62.7563 55.1846 60.9037 55.9387 58.2748 55.9387ZM65.7492 64.5839H67.2842C68.2155 64.5839 68.5417 64.7837 68.5417 65.5589V75.1087C68.5417 75.8623 68.2155 76.1503 67.2842 76.1503H65.7492V77.694H81.4401V71.3539H79.9565C79.9565 74.4796 78.6557 76.1235 76.4657 76.1235H72.0627V71.0434H72.9271C74.3478 71.0434 75.1593 71.6428 75.1593 72.75V73.6373H76.8614V66.5866H75.1593V67.3628C75.1593 68.4509 74.302 69.114 72.9271 69.114H72.0627V64.5839H76.1632C79.1692 64.5839 79.7934 66.2311 79.9565 68.6924H81.4401V62.9061H65.7492V64.5839V64.5839ZM58.8467 76.1235H55.1284V65.626C55.1284 64.8503 55.4546 64.5844 56.3864 64.5844H57.784V62.9434H49.1083V64.5844H50.3201C51.252 64.5844 51.5782 64.8503 51.5782 65.626V75.1087C51.5782 75.8623 51.252 76.1508 50.3201 76.1508H49.1083V77.7319H63.8125V71.236H62.1361C62.0888 73.7849 62.1074 76.1235 58.8467 76.1235V76.1235ZM38.1044 62.4926C32.7459 62.4926 29.4101 66.4252 29.3915 70.1249C29.3674 74.9137 32.6996 77.9288 37.9413 77.9288C43.5087 77.9288 46.7473 74.9582 46.7473 69.8806C46.7473 66.1181 43.2525 62.4926 38.1044 62.4926V62.4926ZM37.9876 76.1843C35.192 76.1843 33.5846 73.805 33.5846 70.0138C33.5846 66.3111 35.262 64.3995 38.1275 64.3995C40.8763 64.3995 42.4837 66.3557 42.4837 70.169C42.4842 73.8937 40.8536 76.1843 37.9876 76.1843V76.1843ZM102.054 64.5839H103.686V62.9228H95.7979V64.5839H96.8295C97.2171 64.6405 97.4744 65.0185 97.0882 65.3869L94.8958 67.7806L93.1544 65.7549C92.7668 65.3256 92.8317 64.5882 93.5411 64.5882L94.3375 64.5834V62.9223H85.3498V64.5834C87.6071 64.6448 88.171 64.8953 88.986 65.8929L92.6379 70.1125L87.6716 75.0838C86.7865 76.0372 86.702 76.1225 85.3503 76.1225V77.7098H93.2184V76.1225H91.3355C90.7772 76.1225 90.6599 75.7368 90.6599 75.4493C90.6599 75.1609 91.0561 74.8284 91.2192 74.6286L93.9921 71.6423L96.766 74.7843C96.9055 74.9616 97.1376 75.1614 97.1376 75.3832C97.1376 75.6717 96.8818 76.123 96.3462 76.123H94.7865V77.7103H103.686V76.123C102.28 76.123 102.154 76.0597 100.893 74.5936L96.2495 69.3765L99.4095 66.1233C100.573 64.9485 101.029 64.5839 102.054 64.5839V64.5839ZM25.6913 73.462V74.2214C25.6913 75.1302 25.1335 75.5955 24.6678 75.5955C23.9223 75.5955 23.8759 74.7311 23.8291 74.2214V73.6076C23.8291 71.5819 22.862 70.7837 21.6367 70.17C23.9197 69.6606 25.4346 68.3627 25.4346 66.5665C25.4346 64.2385 23.7571 62.908 20.7758 62.908H9.5V64.5844H11.0269C11.9588 64.5844 12.285 64.7895 12.285 65.5652V75.0819C12.285 75.8355 11.9588 76.1235 11.0269 76.1235H9.5V77.6959H18.2828V76.1235H17.0711C16.1392 76.1235 15.813 75.8355 15.813 75.0819V70.845H17.3797C19.0571 70.845 20.286 71.7376 20.3791 73.4227L20.5191 75.3684C20.6122 77.1421 21.8703 78.095 24.0834 78.095C26.4364 78.095 26.9892 77.0089 26.9892 74.7029V73.4615H25.6913V73.462V73.462ZM18.5411 68.9204H15.815V64.5715H18.2375C20.5674 64.5715 21.4056 65.3069 21.4056 66.7476C21.4061 68.2329 20.4979 68.9204 18.5411 68.9204Z" fill="black"/>
</svg>
